<svg width="128" height="128" viewBox="0 0 128 128" fill="none" xmlns="http://www.w3.org/2000/svg">
<path d="M27.887 24.8035C27.887 23.0735 27.887 21.6935 27.887 20.3135C27.887 18.7535 28.717 17.9135 30.057 17.9435C31.397 17.9735 31.997 18.7735 31.997 20.3135C31.997 23.4468 31.997 26.5801 31.997 29.7135C31.997 31.3935 31.417 31.9535 29.717 31.9635H20.317C18.797 32.0035 17.997 31.2535 17.997 30.0035C17.9739 29.7079 18.017 29.4108 18.1229 29.1339C18.2288 28.8569 18.395 28.607 18.6094 28.4022C18.8238 28.1973 19.081 28.0427 19.3625 27.9496C19.644 27.8564 19.9427 27.827 20.237 27.8635C21.667 27.8035 23.097 27.8635 24.667 27.8635C24.3687 27.2275 23.9147 26.6771 23.347 26.2635C18.777 21.6735 14.177 17.1135 9.63696 12.4935C9.3819 12.1781 9.03443 11.9507 8.6434 11.843C8.25237 11.7354 7.83745 11.7531 7.45696 11.8935C5.93132 12.2752 4.31677 12.0427 2.96084 11.246C1.60491 10.4493 0.615995 9.15203 0.206957 7.63347C-0.203793 6.10363 0.00182742 4.47372 0.779654 3.09382C1.55748 1.71393 2.84546 0.69413 4.36696 0.25347C9.53696 -1.19653 13.207 3.89347 11.927 7.42347C11.7746 7.80333 11.7518 8.22283 11.8621 8.61695C11.9724 9.01108 12.2096 9.35783 12.537 9.60347C17.427 14.3935 22.247 19.2635 27.087 24.1035C27.257 24.2735 27.457 24.4235 27.887 24.8035Z" fill="#EF781F"/>
<path d="M4.0001 5.5809C4.03582 5.14065 4.23954 4.731 4.56906 4.43686C4.89857 4.14272 5.32862 3.98661 5.77009 4.0009C6.29721 3.9874 6.80833 4.18261 7.19225 4.54405C7.57617 4.9055 7.80181 5.40393 7.8201 5.9309C7.78948 6.44026 7.56532 6.91866 7.19352 7.26816C6.82171 7.61766 6.33038 7.81182 5.8201 7.8109C4.7701 7.7409 3.9901 7.0809 4.0001 5.5809Z" fill="#EBE9EE"/>
<path d="M123.187 7.34346C122.297 8.29346 121.427 9.26346 120.507 10.1935C116.374 14.3335 112.24 18.4668 108.107 22.5935C107.836 22.7798 107.635 23.051 107.536 23.3642C107.436 23.6775 107.443 24.015 107.557 24.3235C107.78 25.123 107.839 25.9598 107.728 26.7826C107.618 27.6054 107.34 28.3971 106.914 29.1092C106.487 29.8214 105.92 30.4391 105.246 30.9247C104.573 31.4103 103.807 31.7535 102.997 31.9335C99.6669 32.5835 96.1869 30.2435 95.7969 27.0835C95.6541 26.2355 95.6895 25.3671 95.9009 24.5336C96.1123 23.7001 96.495 22.9197 97.0247 22.2423C97.5544 21.5649 98.2194 21.0053 98.9773 20.5992C99.7353 20.1931 100.57 19.9493 101.427 19.8835C101.633 19.8278 101.851 19.8278 102.057 19.8835C104.167 21.0635 105.267 19.5335 106.517 18.2735C110.827 13.9335 115.157 9.63346 119.517 5.27346C119.797 4.99346 120.057 4.68346 120.517 4.15346C118.847 4.15346 117.517 4.15346 116.137 4.15346C114.547 4.15346 113.647 3.36346 113.657 2.09346C113.667 0.823457 114.477 0.093457 116.087 0.043457C119.177 0.043457 122.257 0.043457 125.337 0.043457C127.157 0.043457 127.677 0.583457 127.677 2.42346C127.677 5.55346 127.677 8.69346 127.677 11.8335C127.677 13.1735 127.127 13.9635 125.777 14.0535C125.484 14.084 125.188 14.0494 124.91 13.9523C124.632 13.8551 124.379 13.6977 124.168 13.4914C123.958 13.285 123.796 13.0348 123.694 12.7585C123.592 12.4823 123.552 12.1869 123.577 11.8935C123.577 10.4635 123.577 9.02346 123.577 7.59346L123.187 7.34346Z" fill="#EF781F"/>
<path d="M120.367 43.4334C119.367 42.4334 118.367 41.5734 117.367 40.5734C116.367 39.5734 116.297 38.3334 117.247 37.5034C117.45 37.2946 117.694 37.1308 117.964 37.0227C118.234 36.9146 118.523 36.8645 118.814 36.8758C119.105 36.8872 119.39 36.9596 119.65 37.0884C119.911 37.2172 120.142 37.3995 120.327 37.6234C122.557 39.8234 124.777 42.0334 126.937 44.2934C128.057 45.4634 127.937 46.4534 126.867 47.6034C124.867 49.7234 122.787 51.8734 120.667 53.9334C120.037 54.5434 119.377 55.2934 118.207 54.9334C116.617 54.4834 115.967 52.8634 117.097 51.6634C118.227 50.4634 119.407 49.5034 120.437 48.5634C120.197 47.7434 119.817 47.8834 119.537 47.8934C115.877 47.9634 112.217 47.7734 108.537 47.9634C108.212 47.9465 107.889 48.0281 107.611 48.1976C107.332 48.3671 107.112 48.6165 106.977 48.9134C106.405 49.9416 105.543 50.779 104.499 51.3212C103.455 51.8634 102.274 52.0866 101.104 51.963C99.9336 51.8394 98.8257 51.3744 97.9177 50.6259C97.0097 49.8774 96.3419 48.8785 95.9973 47.7534C95.5825 46.3475 95.6758 44.8405 96.2609 43.4966C96.846 42.1526 97.8856 41.0576 99.1973 40.4034C100.536 39.81 102.043 39.7179 103.444 40.1439C104.845 40.5698 106.046 41.4854 106.827 42.7234C106.994 43.1016 107.279 43.4148 107.64 43.6153C108.001 43.8158 108.418 43.8924 108.827 43.8334C112.637 43.7734 116.437 43.8334 120.247 43.8334L120.367 43.4334Z" fill="#EF781F"/>
<path d="M24.6269 47.9135C20.7669 47.9135 16.9069 47.9135 13.0469 47.9135C12.6785 47.8856 12.3108 47.9763 11.9977 48.1725C11.6846 48.3686 11.4425 48.6598 11.3069 49.0035C10.9112 49.7223 10.3708 50.3514 9.71984 50.851C9.06889 51.3506 8.32149 51.7099 7.52476 51.9063C6.72803 52.1026 5.89926 52.1318 5.09071 51.9919C4.28215 51.852 3.51135 51.5461 2.82689 51.0935C2.11978 50.63 1.51601 50.0255 1.0534 49.3179C0.590793 48.6102 0.279321 47.8146 0.138502 46.9809C-0.0023184 46.1473 0.0305483 45.2935 0.235042 44.4732C0.439536 43.6528 0.81125 42.8835 1.32689 42.2135C2.35395 40.956 3.83659 40.1557 5.45142 39.9871C7.06625 39.8185 8.68224 40.2953 9.94689 41.3135C10.2122 41.4796 10.4349 41.7057 10.5969 41.9735C11.3369 43.8235 12.7769 43.9735 14.5269 43.8835C17.8469 43.7635 21.1769 43.8835 24.5269 43.8835L24.8469 43.4735C23.8469 42.5735 22.8469 41.7235 21.8469 40.7735C20.6969 39.6435 20.6369 38.5435 21.5669 37.5835C22.4969 36.6235 23.6469 36.6935 24.7569 37.7735C26.9302 39.8802 29.0702 42.0168 31.1769 44.1835C32.3469 45.3835 32.3969 46.4035 31.2469 47.6235C29.0169 49.9935 26.7569 52.3435 24.4069 54.6235C24.2191 54.8145 23.9938 54.9646 23.7452 55.0643C23.4965 55.1639 23.2299 55.211 22.9622 55.2025C22.6945 55.1941 22.4314 55.1303 22.1895 55.0151C21.9476 54.9 21.7323 54.736 21.5569 54.5335C21.3432 54.3708 21.1686 54.1624 21.0459 53.9234C20.9232 53.6845 20.8555 53.4211 20.8478 53.1526C20.8402 52.8841 20.8927 52.6173 21.0015 52.3718C21.1104 52.1262 21.2728 51.9081 21.4769 51.7335C22.6169 50.6435 23.8069 49.5935 24.9669 48.5335L24.6269 47.9135Z" fill="#EF781F"/>
<path fill-rule="evenodd" clip-rule="evenodd" d="M37.9974 103.003C38.7958 96.0015 41.7886 89.4315 46.5474 84.2335C52.2474 77.7435 53.9674 70.2335 51.3974 61.9035C51.0774 60.9035 50.7874 60.0435 49.2574 59.9035C44.3174 59.3935 42.2074 53.4535 45.3474 50.1135C45.8874 49.5335 45.6474 49.2235 45.1574 48.8435C37.5274 43.0635 38.1574 30.4835 47.4674 25.5135C50.2103 24.0684 53.3653 23.6061 56.4074 24.2035C57.6174 24.4135 57.8874 24.2035 57.8774 23.0335C57.8774 20.1735 57.8774 20.1435 55.0374 20.1835C49.8374 20.2535 49.7874 20.2335 49.8874 15.0235V10.3935C49.8874 8.8535 50.6074 8.0935 52.2074 8.0835C52.6273 8.08087 53.0334 8.07618 53.4306 8.07159C54.547 8.0587 55.5932 8.04662 56.6774 8.0835C57.5674 8.0835 57.9074 7.8335 57.8674 6.9135C57.8274 5.88683 57.8408 4.86016 57.8541 3.8335C57.8608 3.32016 57.8674 2.80683 57.8674 2.2935C57.8674 0.753496 58.5074 0.0934961 60.1074 0.0834961H67.5974C69.3474 0.0834961 69.9374 0.703496 69.9974 2.5035V6.9735C69.9974 7.8135 70.2774 8.0835 71.1074 8.0635C72.1341 8.03016 73.1608 8.04127 74.1874 8.05239C74.7008 8.05794 75.2141 8.0635 75.7274 8.0635C76.0192 8.01417 76.3183 8.03292 76.6016 8.11831C76.8849 8.20369 77.1446 8.35339 77.3605 8.55571C77.5764 8.75804 77.7426 9.00752 77.8461 9.28468C77.9497 9.56184 77.9878 9.85918 77.9574 10.1535C78.0474 12.8035 78.0274 15.4635 77.9574 18.1535C77.9585 18.432 77.9015 18.7077 77.7899 18.9628C77.6784 19.218 77.5147 19.4471 77.3095 19.6354C77.1043 19.8236 76.862 19.967 76.5982 20.0562C76.3343 20.1454 76.0548 20.1786 75.7774 20.1535C75.2641 20.1535 74.7508 20.1602 74.2374 20.1668C73.2108 20.1802 72.1841 20.1935 71.1574 20.1535C70.2374 20.1535 69.9274 20.4535 69.9974 21.3435C70.0221 21.6575 69.9995 21.999 69.977 22.3384C69.9358 22.9608 69.895 23.5764 70.1474 24.0035C70.4874 24.6168 71.0585 24.4124 71.6296 24.2079C71.9152 24.1057 72.2008 24.0035 72.4574 24.0035C75.9368 23.6476 79.4233 24.607 82.2309 26.6927C85.0384 28.7785 86.9636 31.8396 87.6274 35.2735C88.4974 40.4935 87.1174 45.0635 82.9774 48.5635C82.2474 49.1935 81.9774 49.4435 82.6974 50.3935C85.5574 54.2035 83.2674 59.2035 78.3274 59.9335C77.9493 59.9307 77.5807 60.0526 77.2788 60.2804C76.977 60.5082 76.7586 60.8291 76.6574 61.1935C75.4684 64.3787 75.0303 67.7952 75.3771 71.1774C75.724 74.5595 76.8466 77.816 78.6574 80.6935C79.6537 82.3415 80.8688 83.8226 82.0869 85.3073L82.0869 85.3074L82.087 85.3074C83.4854 87.012 84.8878 88.7213 85.9674 90.6935C87.9724 94.508 89.2957 98.6435 89.8774 102.913C90.9666 99.2381 91.2799 95.3764 90.7974 91.5735C90.7482 91.2853 90.7336 90.9872 90.7188 90.6862L90.7188 90.6858L90.7188 90.6855L90.7188 90.6852L90.7187 90.685L90.7187 90.6847C90.7125 90.558 90.7063 90.4307 90.6974 90.3035C90.5974 88.8335 90.2574 87.7435 88.5574 87.1035C85.3774 85.8935 83.8274 83.2335 83.7374 79.9035C83.6574 76.8565 83.6841 73.805 83.7108 70.755V70.7539V70.7527V70.7516V70.7505V70.7494V70.7482V70.7471V70.746V70.7449C83.7241 69.2238 83.7374 67.7031 83.7374 66.1835C83.7374 64.5035 84.3774 63.8935 86.0574 63.8835H93.7074C95.1574 63.8835 95.8674 64.5435 95.8374 66.0235C95.8174 67.0094 95.8241 67.9509 95.8307 68.8954C95.8341 69.3687 95.8374 69.8428 95.8374 70.3235C95.8374 70.3968 95.836 70.4705 95.8347 70.5439C95.8222 71.2124 95.8103 71.8555 96.8374 71.8735C97.7761 71.89 97.7452 71.3098 97.7162 70.7639C97.71 70.6468 97.7039 70.5312 97.7074 70.4235V66.1235C97.7074 64.5035 98.3374 63.9035 99.9174 63.8935H107.567C109.117 63.8935 109.757 64.5735 109.787 66.1335C109.817 67.6935 109.847 69.3235 109.787 70.9235C109.787 71.6561 110.149 71.7093 110.608 71.777L110.609 71.7772C110.645 71.7824 110.681 71.7878 110.717 71.7935C111.407 71.9035 111.647 71.7035 111.627 70.9435C111.627 70.0703 111.65 69.1972 111.673 68.3225C111.693 67.5543 111.713 66.785 111.717 66.0135C111.673 65.7217 111.697 65.4235 111.79 65.1431C111.882 64.8628 112.04 64.6083 112.25 64.4005C112.459 64.1928 112.715 64.0376 112.996 63.9477C113.278 63.8579 113.576 63.8359 113.867 63.8835H121.677C121.931 63.8432 122.191 63.8582 122.439 63.9274C122.687 63.9966 122.917 64.1184 123.113 64.2845C123.31 64.4506 123.468 64.657 123.577 64.8898C123.687 65.1226 123.745 65.3763 123.747 65.6335C123.747 67.1501 123.783 68.6676 123.819 70.1849L123.819 70.1855C123.906 73.8704 123.992 77.5545 123.567 81.2235C123.409 82.6588 122.829 84.015 121.899 85.1204C120.97 86.2258 119.734 87.0307 118.347 87.4335C118.003 87.5362 117.698 87.7415 117.472 88.0219C117.247 88.3024 117.113 88.6448 117.087 89.0035C115.636 95.7516 116.767 102.798 120.257 108.753C120.421 109.05 120.645 109.309 120.916 109.512C121.186 109.716 121.497 109.859 121.827 109.933C123.579 110.411 125.117 111.469 126.187 112.936C127.257 114.403 127.797 116.19 127.717 118.003C127.604 119.59 127.642 121.186 127.68 122.781V122.781C127.699 123.579 127.717 124.377 127.717 125.173C127.717 127.173 127.227 127.673 125.167 127.673H2.99742C0.507421 127.673 0.127421 127.303 0.127421 124.853C0.127421 124.023 0.142343 123.217 0.15702 122.425C0.185664 120.878 0.213377 119.381 0.127421 117.853C0.0704219 116.147 0.571836 114.469 1.5555 113.074C2.53915 111.679 3.9513 110.643 5.57742 110.123C6.11957 109.952 6.61736 109.663 7.03555 109.278C7.45374 108.892 7.78211 108.42 7.99742 107.893C11.1368 102.06 12.0873 95.2963 10.6774 88.8235C10.6337 88.4883 10.4917 88.1735 10.2692 87.919C10.0467 87.6645 9.75379 87.4816 9.42742 87.3935C7.75784 86.8311 6.3206 85.7333 5.33876 84.2705C4.35693 82.8077 3.88542 81.0617 3.99742 79.3035V66.7035C3.99742 64.4135 4.54742 63.8635 6.77742 63.8635H13.5974C15.4774 63.8635 16.1774 64.5935 16.1274 66.4635C16.1274 67.8435 16.1274 69.2135 16.0574 70.5935C16.0574 71.3135 16.1774 71.8335 17.0574 71.8335C17.9374 71.8335 17.9674 71.1935 17.9674 70.5435V66.2435C17.9674 64.5435 18.5874 63.8835 20.2274 63.8635H28.0374C28.3152 63.8382 28.5951 63.876 28.8561 63.9741C29.1172 64.0722 29.3528 64.228 29.5451 64.43C29.7375 64.632 29.8816 64.8748 29.9669 65.1404C30.0522 65.4059 30.0763 65.6873 30.0374 65.9635V70.5835C30.0374 70.6676 30.0321 70.7546 30.0267 70.8418C29.9978 71.3143 29.9685 71.7913 30.7874 71.8335C31.7574 71.8835 31.8774 71.2735 31.9074 70.6335C31.9475 69.6439 31.934 68.6363 31.9206 67.6408C31.914 67.1476 31.9074 66.6572 31.9074 66.1735C31.9074 64.4635 32.4974 63.8635 34.1574 63.8535H41.6474C43.1974 63.8535 43.9674 64.4935 43.9774 66.0135C43.9774 67.6065 43.9963 69.2005 44.0152 70.795V70.7951V70.7952V70.7952V70.7953V70.7954V70.7955V70.7956V70.7957V70.7958C44.053 73.9855 44.0908 77.1767 43.9774 80.3635C43.936 81.9189 43.4124 83.4231 42.4791 84.6681C41.5458 85.9131 40.2488 86.8375 38.7674 87.3135C38.3692 87.4249 38.0135 87.6531 37.7461 87.9686C37.4788 88.2841 37.312 88.6724 37.2674 89.0835C36.3969 93.7153 36.6472 98.4882 37.9974 103.003ZM63.8476 115.543H45.0476C43.8776 115.543 43.2676 115.363 42.9876 114.033C40.8876 104.183 42.4176 95.2234 49.2476 87.5134C54.7176 81.3334 57.3376 74.1934 56.4976 65.9234C56.3084 64.2967 55.9737 62.6903 55.4976 61.1234C55.2376 60.2434 55.3976 59.9834 56.2976 59.9834H71.5876C72.5076 59.9834 72.5876 60.2734 72.3676 61.1334C69.5176 71.2134 71.8876 80.0034 78.7576 87.7834C82.8354 92.2916 85.2673 98.0471 85.6576 104.113C85.854 107.472 85.5575 110.841 84.7776 114.113C84.5276 115.253 84.0676 115.543 82.9676 115.533C79.1451 115.527 75.319 115.532 71.4936 115.537C68.9442 115.54 66.3951 115.543 63.8476 115.543ZM59.2429 47.8949H59.2429H59.243H59.243H59.2431H59.2431H59.2432H59.2432H59.2432C60.6332 47.8642 61.9534 47.835 63.1568 47.9134L64.3674 47.9136H64.3677H64.368H64.3682H64.3685H64.3687H64.369H64.3692H64.3695C67.8675 47.9145 70.8231 47.9153 73.7868 47.8434C74.3647 47.7903 74.939 47.7035 75.5068 47.5834C76.9089 47.3451 78.2426 46.8057 79.4161 46.0023C80.5896 45.199 81.575 44.1508 82.3045 42.93C83.034 41.7092 83.4902 40.3448 83.6417 38.9308C83.7932 37.5167 83.6364 36.0866 83.1821 34.739C82.7277 33.3914 81.9867 32.1583 81.01 31.1246C80.0333 30.0909 78.8441 29.2812 77.5244 28.7513C76.2047 28.2213 74.7858 27.9838 73.3654 28.0549C71.945 28.1261 70.557 28.5042 69.2968 29.1634C67.3368 30.1034 65.8268 29.4034 65.8268 27.4034C65.7868 25.3164 65.8002 23.2249 65.8135 21.1349C65.8202 20.0904 65.8268 19.0464 65.8268 18.0034C65.7995 17.7252 65.836 17.4444 65.9334 17.1824C66.0308 16.9204 66.1866 16.684 66.3891 16.4913C66.5915 16.2985 66.8352 16.1543 67.1016 16.0698C67.3681 15.9853 67.6503 15.9626 67.9268 16.0034H71.2968C72.5823 16.0034 73.2154 16.0034 73.5268 15.6869C73.8291 15.3797 73.8284 14.7744 73.827 13.5817V13.5817L73.8268 13.3234C73.8068 12.4234 73.5568 12.1334 72.6468 12.1334C71.1868 12.1834 69.7868 12.1734 68.1868 12.1334C66.5868 12.0934 65.8868 11.3634 65.8368 9.76341V6.76341C65.8268 6.26954 65.836 5.87171 65.8434 5.55112C65.8581 4.91678 65.8658 4.58479 65.7038 4.40944C65.526 4.2169 65.1437 4.21321 64.3416 4.20548C64.0306 4.20248 63.6565 4.19887 63.2068 4.18341C62.1568 4.14341 61.9968 4.58341 61.9968 5.49341C62.0302 6.44711 62.019 7.40526 62.0079 8.36193V8.36205V8.36218V8.36231V8.36243V8.36256V8.36268V8.36281V8.36294C62.0024 8.84038 61.9968 9.31745 61.9968 9.79341C62.0411 10.1173 62.0092 10.447 61.9036 10.7563C61.798 11.0656 61.6216 11.346 61.3886 11.5752C61.1555 11.8044 60.8722 11.976 60.5611 12.0763C60.2501 12.1767 59.9199 12.2031 59.5968 12.1534H56.5968C56.0813 12.1658 55.6695 12.1547 55.3405 12.1459C54.7354 12.1297 54.4099 12.121 54.2324 12.2789C54.0256 12.4627 54.0199 12.8726 54.0075 13.7601V13.7603C54.0035 14.0433 53.9989 14.375 53.9868 14.7634C53.9568 15.7434 54.2468 16.0734 55.2468 16.0234C56.1998 15.9834 57.1572 15.9967 58.1161 16.0101C58.5961 16.0167 59.0765 16.0234 59.5568 16.0234C61.3468 16.0334 61.9768 16.6234 61.9768 18.3734V27.1434C61.9568 29.4234 60.5968 30.2134 58.4968 29.2134C56.4428 28.1187 54.064 27.7982 51.7935 28.3103C49.523 28.8224 47.512 30.133 46.1268 32.0034C45.0569 33.2908 44.3606 34.847 44.1137 36.5026C43.8669 38.1583 44.0789 39.8499 44.7268 41.3934C45.2908 43.0596 46.3153 44.5319 47.6816 45.6398C49.0479 46.7477 50.7001 47.4459 52.4468 47.6534C54.7631 47.9939 57.0868 47.9425 59.2426 47.8949H59.2426H59.2427H59.2427H59.2427H59.2428H59.2428H59.2428H59.2429ZM36.1561 109.483H11.9961C12.9684 107.383 13.7937 105.218 14.4661 103.003C15.6424 98.3571 15.823 93.5145 14.9961 88.7934C14.8561 87.9435 14.9961 87.7934 15.7961 87.7934H32.3161C32.3761 87.7934 32.4388 87.7901 32.5019 87.7868L32.5021 87.7868C32.8911 87.7662 33.2937 87.745 33.1561 88.4934C31.7617 95.6283 32.8189 103.025 36.1561 109.483ZM94.5665 87.7734C95.8665 95.3634 95.2665 102.563 91.6465 109.463L115.686 109.453V109.083C112.516 102.735 111.545 95.5135 112.926 88.5534C113.073 87.7244 112.638 87.7455 112.201 87.7667C112.132 87.7701 112.063 87.7734 111.996 87.7734H94.5665ZM103.688 83.6535H92.0577C91.4996 83.6861 90.9409 83.6014 90.4176 83.4048C89.8943 83.2083 89.418 82.9042 89.0195 82.5122C88.6209 82.1203 88.3089 81.6491 88.1037 81.1292C87.8984 80.6092 87.8044 80.052 87.8277 79.4935V69.2935C87.8277 68.2135 88.2077 67.8735 89.2077 67.9835C89.6296 68.0334 90.0558 68.0334 90.4777 67.9835C91.4777 67.8535 91.7377 68.3535 91.6977 69.2835C91.6577 70.2033 91.671 71.1232 91.6844 72.0431V72.0435C91.691 72.5035 91.6977 72.9635 91.6977 73.4235C91.6507 73.7707 91.684 74.1241 91.795 74.4565C91.9061 74.7888 92.0919 75.0913 92.3383 75.3405C92.5846 75.5898 92.8848 75.7791 93.2159 75.8941C93.5469 76.009 93.8999 76.0464 94.2477 76.0035H99.4977C99.8178 76.0379 100.141 75.9992 100.444 75.8905C100.747 75.7818 101.022 75.6058 101.247 75.3758C101.472 75.1458 101.642 74.8677 101.745 74.5624C101.847 74.2572 101.879 73.9328 101.838 73.6135V69.1535C101.838 68.3535 102.048 68.0435 102.908 68.0135L103.025 68.0084C104.341 67.9511 105.004 67.9222 105.338 68.2397C105.678 68.5623 105.678 69.2424 105.678 70.6135V73.8035C105.648 74.0984 105.684 74.3962 105.784 74.6754C105.883 74.9546 106.044 75.2081 106.253 75.4177C106.463 75.6273 106.717 75.7877 106.996 75.8873C107.275 75.9868 107.573 76.0231 107.868 75.9935H113.448C113.781 76.0135 114.115 75.96 114.425 75.8367C114.736 75.7134 115.016 75.5235 115.245 75.2802C115.473 75.0369 115.646 74.7463 115.75 74.4289C115.855 74.1115 115.888 73.7751 115.848 73.4435V69.3035C115.848 68.3035 116.078 68.0235 117.088 68.0135L117.283 68.0134C118.467 68.0126 119.073 68.0121 119.383 68.3147C119.708 68.6319 119.708 69.282 119.708 70.6135V79.2135C119.708 82.0835 118.088 83.6935 115.158 83.7035L103.688 83.6535ZM12.5567 83.6535H23.9967C25.0684 83.6535 26.1375 83.6425 27.2039 83.6317C29.8193 83.605 32.4181 83.5785 34.9967 83.7134C38.2667 83.8534 39.9967 82.0034 39.9967 78.7734V70.5334C39.993 70.1571 39.9958 69.8373 39.9982 69.5655V69.5652V69.5649V69.5647C40.0055 68.7472 40.0088 68.365 39.8197 68.1855C39.6536 68.0279 39.3388 68.0269 38.7476 68.0249C38.4176 68.0239 38.0013 68.0225 37.4767 67.9934C36.4167 67.9334 36.0667 68.3534 36.1267 69.3534C36.1667 70.2472 36.1534 71.1364 36.14 72.0242V72.0245V72.0249V72.0252V72.0256C36.1334 72.4684 36.1267 72.9109 36.1267 73.3534C36.0767 75.1734 35.2467 76.0034 33.4967 76.0034H28.2467C27.9347 76.0349 27.6196 75.9964 27.3244 75.8908C27.0292 75.7852 26.7612 75.6151 26.5399 75.3929C26.3187 75.1707 26.1497 74.9019 26.0454 74.6062C25.9411 74.3105 25.9039 73.9953 25.9367 73.6834C25.8417 72.4119 25.8417 71.135 25.9367 69.8634C26.1167 68.2735 25.4967 67.7435 23.9967 68.0034C23.8756 68.032 23.7508 68.0421 23.6267 68.0334C22.3567 67.8035 22.0867 68.4235 22.1567 69.5535C22.2101 70.4738 22.1923 71.3986 22.1745 72.322C22.1656 72.7831 22.1567 73.2438 22.1567 73.7034C22.1946 74.0098 22.1627 74.3207 22.0637 74.6129C21.9646 74.9052 21.8008 75.1714 21.5845 75.3915C21.3682 75.6117 21.1049 75.7802 20.8144 75.8844C20.5239 75.9886 20.2136 76.0259 19.9067 75.9934C19.2863 75.9934 18.666 76.0001 18.046 76.0068C16.8071 76.0201 15.5697 76.0334 14.3367 75.9934C14.0162 76.0058 13.6967 75.9501 13.3993 75.8299C13.1018 75.7098 12.8333 75.528 12.6112 75.2965C12.3892 75.065 12.2187 74.7891 12.1111 74.4869C12.0034 74.1847 11.961 73.8632 11.9867 73.5434V70.2034C11.9826 69.8749 11.9867 69.5956 11.9902 69.3583C11.9994 68.7271 12.0043 68.3924 11.8396 68.2164C11.6536 68.0178 11.2513 68.0215 10.3948 68.0296L10.3933 68.0296C10.2014 68.0314 9.9868 68.0334 9.74671 68.0334H9.11671C8.29671 67.9035 8.11671 68.3135 8.11671 69.0334C8.11671 70.2082 8.10557 71.3796 8.09445 72.5495V72.5495V72.5496V72.5497V72.5497C8.07224 74.8853 8.05009 77.2149 8.11671 79.5535C8.18671 82.2135 9.83671 83.6535 12.5567 83.6535ZM22.697 113.873H36.997C37.3667 113.853 37.7372 113.853 38.107 113.873C38.7492 113.934 38.8115 114.462 38.8625 114.895C38.8702 114.96 38.8777 115.024 38.887 115.083C38.9472 115.47 38.5344 115.48 38.2077 115.488L38.2072 115.488L38.2066 115.488C38.1759 115.489 38.1459 115.49 38.1171 115.491C38.0964 115.491 38.0763 115.492 38.057 115.493C34.597 115.723 31.567 118.173 31.977 122.133C32.077 123.133 31.747 123.503 30.677 123.503C22.2903 123.463 13.9003 123.463 5.50698 123.503C4.42698 123.503 4.13698 123.133 4.18698 122.133C4.23366 121.18 4.21807 120.222 4.20251 119.265C4.19474 118.787 4.18698 118.31 4.18698 117.833C4.13526 117.3 4.2015 116.761 4.38099 116.256C4.56048 115.75 4.84885 115.29 5.22569 114.909C5.60252 114.527 6.05862 114.233 6.5617 114.047C7.06478 113.861 7.60256 113.788 8.13698 113.833C12.997 113.853 17.867 113.873 22.697 113.873ZM119.247 113.874H105.067L90.7573 113.894C90.3877 113.869 90.0169 113.869 89.6473 113.894C88.9876 113.992 88.9558 114.447 88.9212 114.942C88.917 115.002 88.9128 115.063 88.9073 115.124C88.8663 115.583 89.2493 115.551 89.5649 115.525C89.634 115.519 89.6999 115.514 89.7573 115.514C93.0173 115.744 96.1773 118.084 95.7573 122.184C95.6473 123.254 96.0773 123.524 97.0773 123.524H122.257C123.187 123.534 123.607 123.294 123.547 122.294V118.154C123.537 115.274 122.157 113.874 119.247 113.874ZM63.8161 123.524H38.6361C37.3261 123.524 36.2661 123.264 36.1461 121.744C36.0461 120.384 36.9561 119.664 38.7161 119.664H89.0761C90.2361 119.664 91.2061 119.904 91.5861 121.134C91.7103 121.514 91.704 121.926 91.5681 122.302C91.4323 122.679 91.1747 123 90.8361 123.214C90.2791 123.532 89.6256 123.639 88.9961 123.514L63.8161 123.524ZM77.2466 52.0034H63.8766C62.3936 52.0034 60.9129 52.009 59.4317 52.0145C56.4684 52.0256 53.5036 52.0368 50.5166 52.0034C49.1966 52.0034 48.1566 52.3834 47.9866 53.8534C47.8666 54.8534 49.1066 55.8534 50.5466 55.8534H77.2766C78.7166 55.8534 79.9466 54.8534 79.8066 53.7734C79.6066 52.3334 78.5566 52.0034 77.2466 52.0034Z" fill="#5F4C8C"/>
<path d="M101.616 27.8634C101.387 27.857 101.16 27.8053 100.95 27.7113C100.741 27.6173 100.551 27.4829 100.393 27.3157C100.236 27.1486 100.112 26.9519 100.03 26.737C99.9485 26.5222 99.9098 26.2933 99.9164 26.0634C99.8916 25.5649 100.063 25.0764 100.394 24.7026C100.725 24.3288 101.189 24.0994 101.686 24.0634C102.576 23.9034 103.786 25.1134 103.686 26.0634C103.626 27.2134 102.866 27.7934 101.616 27.8634Z" fill="#EBE9EE"/>
<path d="M99.8965 45.7835C99.907 45.3237 100.099 44.8868 100.431 44.5683C100.762 44.2497 101.207 44.0754 101.666 44.0835C101.926 44.0606 102.188 44.0933 102.434 44.1793C102.681 44.2653 102.906 44.4027 103.095 44.5824C103.284 44.7621 103.433 44.9799 103.531 45.2215C103.63 45.463 103.676 45.7228 103.666 45.9835C103.636 46.4929 103.412 46.9713 103.04 47.3207C102.668 47.6702 102.177 47.8644 101.666 47.8635C100.576 47.8735 99.9965 47.0735 99.8965 45.7835Z" fill="#EBE9EE"/>
<path d="M4.22666 45.6534C4.26238 45.2132 4.4661 44.8035 4.79562 44.5094C5.12514 44.2152 5.55519 44.0591 5.99666 44.0734C6.52377 44.0599 7.03489 44.2551 7.41881 44.6166C7.80273 44.978 8.02838 45.4764 8.04666 46.0034C8.01604 46.5128 7.79189 46.9912 7.42008 47.3407C7.04827 47.6902 6.55694 47.8843 6.04666 47.8834C4.99666 47.8134 4.21666 47.1534 4.22666 45.6534Z" fill="#EBE9EE"/>
</svg>
