<svg width="118" height="147" viewBox="0 0 118 147" fill="none" xmlns="http://www.w3.org/2000/svg">
<path d="M58.298 119.52C55.678 119.52 53.058 119.44 50.438 119.52C49.368 119.52 49.218 119.22 49.438 118.26C50.838 113.13 49.758 108.26 47.688 103.55C44.688 96.7601 39.928 91.3101 34.618 86.2501C30.7194 82.6072 26.5728 79.2391 22.208 76.1701C18.593 73.6052 14.8371 71.2449 10.958 69.1001C8.41805 67.6701 5.87805 66.2401 3.38805 64.7401C2.96622 64.5624 2.6114 64.2558 2.37431 63.8643C2.13723 63.4727 2.03003 63.0162 2.06805 62.5601C2.14805 61.9001 2.41805 61.7601 2.94805 62.1301C6.08805 64.3101 9.73805 65.0701 13.388 65.8801C18.9734 67.0228 24.6242 67.8176 30.308 68.2601C43.428 69.5501 56.548 69.5701 69.758 69.3801C75.078 69.3001 80.398 68.9701 85.688 68.5201C90.498 68.1101 95.328 67.6901 100.118 66.8101C103.922 66.1536 107.685 65.2788 111.388 64.1901C112.861 63.849 114.232 63.1636 115.388 62.1901C115.578 62.0001 115.788 61.7901 116.088 62.0101C116.217 62.1047 116.312 62.2392 116.357 62.3928C116.402 62.5464 116.395 62.7106 116.338 62.8601C116.208 63.3296 115.982 63.7669 115.674 64.144C115.366 64.5211 114.982 64.8297 114.548 65.0501C110.478 67.2301 106.448 69.5001 102.548 72.0501C98.0596 74.8807 93.7205 77.9415 89.548 81.2201C85.2653 84.6251 81.2961 88.4069 77.688 92.5201C74.1328 96.546 71.3709 101.208 69.548 106.26C68.0085 110.139 67.7975 114.419 68.948 118.43C69.188 119.2 68.948 119.5 68.098 119.49C66.098 119.49 64.038 119.49 61.998 119.49C61.4293 119.793 60.7959 119.953 60.1517 119.959C59.5075 119.964 58.8716 119.813 58.298 119.52V119.52Z" stroke="#5F4C8C" stroke-width="3" stroke-miterlimit="10"/>
<path d="M61.2673 65.3199C56.7773 65.3199 53.6573 65.3899 50.5473 65.3199C46.0673 65.1999 41.5473 65.1099 37.1173 64.7599C33.1173 64.4399 29.1173 64.0999 25.1173 63.6299C20.3245 63.2284 15.5742 62.4222 10.9173 61.2199C8.46731 60.4999 5.91731 59.9999 3.65731 58.6199C1.65731 57.4199 1.24731 54.9999 3.65731 53.7299C5.63306 52.6657 7.76157 51.9134 9.96731 51.4999C11.3873 51.2299 12.7373 50.4999 14.2473 50.7099C14.5273 50.7099 14.9073 50.5299 15.0473 50.9699C15.1873 51.4099 14.7273 51.5399 14.4573 51.6999C13.7473 52.1599 12.8873 52.5499 12.9373 53.5399C12.9873 54.5299 13.9373 54.8799 14.6673 55.3599C16.7273 56.6499 19.1473 56.7499 21.3673 57.4999C23.9773 58.3799 26.7373 58.4399 29.3673 58.9999C31.244 59.3594 33.1471 59.5634 35.0573 59.6099C38.8673 59.7299 42.6573 60.0799 46.4573 60.2599C54.1573 60.6299 61.8573 60.4199 69.5673 60.4099C73.9773 60.4099 78.3973 60.0099 82.7973 59.6199C86.4214 59.3686 90.0277 58.9045 93.5973 58.2299C97.2373 57.4799 100.947 56.8499 104.307 55.0399C104.665 54.9018 104.973 54.6609 105.194 54.3477C105.415 54.0345 105.538 53.663 105.547 53.2799C105.547 52.5599 104.857 52.1299 104.287 51.8399C103.887 51.6199 103.287 51.5999 103.457 51.0199C103.627 50.4399 104.207 50.7199 104.597 50.6999C106.083 50.7734 107.551 51.0562 108.957 51.5399C110.903 52.011 112.781 52.7267 114.547 53.6699C116.937 54.9699 117.037 56.8599 114.757 58.4099C113.031 59.4558 111.152 60.2251 109.187 60.6899C106.571 61.4869 103.896 62.0754 101.187 62.4499C99.4373 62.6899 97.6673 62.9199 95.9273 63.2099C92.9273 63.7199 89.8473 63.7799 86.8073 64.2099C84.7373 64.4699 82.6473 64.6799 80.5673 64.7999C73.7273 65.1399 66.8173 65.5299 61.2673 65.3199Z" fill="#EF781F" stroke="#EF781F" stroke-miterlimit="10"/>
<path d="M68.6472 42.9301C70.6472 42.9301 72.6472 42.9301 74.6472 42.9301C74.9499 42.8925 75.2571 42.9247 75.5455 43.0241C75.8339 43.1236 76.0957 43.2876 76.3109 43.5038C76.5261 43.72 76.689 43.9825 76.7871 44.2713C76.8853 44.5601 76.9161 44.8675 76.8772 45.1701C76.8772 48.1701 76.8772 51.1701 76.8772 54.1701C76.8772 54.9701 76.6172 55.2801 75.7972 55.3401C70.9972 55.6601 66.1972 55.8501 61.3772 55.8401C60.6172 55.8401 60.3772 55.6001 60.3772 54.8401C60.3772 51.5501 60.3772 48.2601 60.3772 44.9701C60.3453 44.6879 60.3775 44.4021 60.4712 44.1341C60.565 43.866 60.718 43.6225 60.9188 43.4217C61.1196 43.2209 61.3631 43.0679 61.6312 42.9742C61.8992 42.8804 62.185 42.8482 62.4671 42.8801C64.5471 42.9201 66.5472 42.9401 68.6472 42.9301Z" stroke="#5F4C8C" stroke-width="1.5" stroke-miterlimit="10"/>
<path d="M50.3975 42.9401C52.2975 42.9401 54.1975 42.9401 56.0875 42.9401C57.5475 42.9401 58.1875 43.5401 58.1975 44.9401C58.1975 48.2401 58.1975 51.5301 58.1975 54.8301C58.1975 55.7001 57.8375 55.9001 57.0575 55.8301C52.4708 55.6367 47.8808 55.4634 43.2875 55.3101C42.5875 55.3101 42.3575 55.0001 42.3675 54.3101C42.3675 51.1501 42.3675 47.9901 42.3675 44.8301C42.3675 43.4801 43.0075 42.8301 44.3675 42.8301C46.4275 42.9201 48.4175 42.9401 50.3975 42.9401Z" stroke="#5F4C8C" stroke-width="1.5" stroke-miterlimit="10"/>
<path d="M32.4478 42.9399C34.3378 42.9399 36.2378 42.9399 38.1278 42.9399C39.5778 42.9399 40.2678 43.5699 40.2778 44.9399C40.2778 48.0099 40.2778 51.0799 40.2778 54.1499C40.2778 54.8999 40.0278 55.2099 39.2778 55.1499C34.5578 54.8299 29.8611 54.3199 25.1878 53.6199C24.5778 53.5299 24.2578 53.2899 24.2678 52.6199C24.2678 49.9999 24.2678 47.3799 24.2678 44.7599C24.2717 44.5016 24.3297 44.247 24.438 44.0124C24.5462 43.7779 24.7024 43.5686 24.8965 43.3981C25.0906 43.2276 25.3182 43.0997 25.5647 43.0225C25.8112 42.9452 26.0712 42.9205 26.3278 42.9499C28.3878 42.9199 30.4178 42.9399 32.4478 42.9399Z" stroke="#5F4C8C" stroke-width="1.5" stroke-miterlimit="10"/>
<path d="M86.3079 43.6499C88.1979 43.6499 90.0879 43.6499 91.9879 43.6499C93.5779 43.6499 94.1879 44.2799 94.1979 45.8199C94.1979 48.2199 94.1979 50.6099 94.1979 52.9999C94.1979 53.8899 93.9579 54.2999 93.0579 54.4199C88.5579 55.0399 84.0579 55.5499 79.5079 55.8799C78.5079 55.9599 78.1879 55.6099 78.2079 54.6099C78.2679 51.8999 78.2079 49.1899 78.2079 46.4899C78.2079 44.1799 78.7979 43.6399 81.1079 43.6399L86.3079 43.6499Z" stroke="#5F4C8C" stroke-width="1.5" stroke-miterlimit="10"/>
<path d="M82.5472 139.49C82.4615 138.282 82.4615 137.069 82.5472 135.86C82.7872 134.27 82.0072 133.65 80.6872 133.18C76.6172 131.73 76.6272 129.18 77.5472 126.18C77.8375 125.383 78.365 124.694 79.0587 124.206C79.7524 123.718 80.579 123.454 81.4272 123.45C82.3572 123.37 82.5572 122.96 82.5272 122.16C82.5272 121.62 82.2872 120.88 83.2972 120.98C84.0472 121.05 84.5272 121.5 84.3772 122.22C84.1872 123.22 84.7672 123.32 85.3772 123.4C87.3772 123.64 88.5072 124.94 89.2772 126.66C89.6772 127.56 89.7372 128.42 88.7172 128.95C88.4922 129.074 88.2431 129.148 87.9868 129.167C87.7306 129.186 87.4732 129.15 87.2323 129.061C86.9913 128.972 86.7723 128.832 86.5903 128.65C86.4082 128.469 86.2674 128.251 86.1772 128.01C85.9519 127.286 85.5538 126.627 85.0172 126.09C84.6372 125.8 84.1972 125.85 84.2872 126.32C84.4176 127.418 84.3974 128.528 84.2272 129.62C84.1272 130.91 84.9672 131.29 85.9772 131.57C86.7726 131.762 87.5142 132.132 88.1463 132.651C88.7785 133.171 89.2848 133.827 89.6272 134.57C89.9848 135.306 90.1563 136.119 90.1267 136.936C90.097 137.754 89.8672 138.552 89.4572 139.26C89.1137 140.02 88.5813 140.679 87.9109 141.174C87.2404 141.669 86.4542 141.985 85.6272 142.09C84.7272 142.21 84.0972 142.5 84.3372 143.69C84.494 144.534 84.4356 145.404 84.1672 146.22C84.0072 146.74 83.8772 147 83.3072 146.96C82.7372 146.92 82.4772 146.55 82.4872 145.96C82.4972 145.37 82.4872 144.52 82.4872 143.8C82.4872 142.93 82.3672 142.49 81.3272 142.24C80.2546 142.038 79.2552 141.554 78.4325 140.836C77.6097 140.119 76.9934 139.195 76.6472 138.16C76.5128 137.91 76.4403 137.631 76.4358 137.347C76.4312 137.063 76.4947 136.782 76.621 136.527C76.7473 136.273 76.9327 136.052 77.1617 135.884C77.3907 135.715 77.6566 135.605 77.9372 135.56C78.9372 135.27 79.5472 135.82 80.0872 137.15C80.5472 138.21 80.9572 139.43 82.5472 139.49Z" fill="#5F4C8C"/>
<path d="M66.7774 42.13C65.6659 41.8963 64.6735 41.2753 63.9775 40.3778C63.2815 39.4803 62.927 38.3646 62.9774 37.23C62.9774 34.37 64.3774 32.31 66.9174 31.65C67.6083 31.4581 68.3307 31.407 69.0418 31.4999C69.7528 31.5927 70.438 31.8276 71.0564 32.1904C71.6749 32.5533 72.2141 33.0368 72.642 33.6122C73.07 34.1876 73.3778 34.8432 73.5474 35.54C74.2874 38.75 72.2774 41.74 69.9074 42.13C68.8722 42.3146 67.8125 42.3146 66.7774 42.13V42.13Z" stroke="#5F4C8C" stroke-width="1.5" stroke-miterlimit="10"/>
<path d="M32.3381 31.51C33.3907 31.514 34.4185 31.8302 35.2914 32.4185C36.1643 33.0068 36.843 33.8408 37.2417 34.815C37.6404 35.7892 37.7411 36.8597 37.5311 37.8912C37.3212 38.9227 36.8099 39.8687 36.0621 40.6095C35.3143 41.3503 34.3636 41.8526 33.3302 42.0528C32.2968 42.2531 31.2272 42.1423 30.2568 41.7345C29.2864 41.3266 28.4588 40.6401 27.8787 39.7617C27.2987 38.8834 26.9922 37.8526 26.9981 36.8C27.0061 35.3908 27.5728 34.0423 28.574 33.0505C29.5751 32.0588 30.9289 31.5047 32.3381 31.51V31.51Z" stroke="#5F4C8C" stroke-width="1.5" stroke-miterlimit="10"/>
<path d="M50.4266 42.15C49.3736 42.1599 48.3413 41.8571 47.4606 41.2799C46.5798 40.7027 45.8902 39.8771 45.479 38.9076C45.0678 37.9382 44.9536 36.8685 45.1507 35.8341C45.3479 34.7997 45.8476 33.8471 46.5866 33.0969C47.3256 32.3467 48.2706 31.8327 49.3019 31.6199C50.3332 31.4072 51.4045 31.5053 52.38 31.9019C53.3555 32.2984 54.1914 32.9755 54.7818 33.8475C55.3722 34.7195 55.6906 35.747 55.6966 36.8C55.7019 38.2068 55.151 39.5586 54.1638 40.5607C53.1766 41.5629 51.8332 42.1342 50.4266 42.15V42.15Z" stroke="#5F4C8C" stroke-width="1.5" stroke-miterlimit="10"/>
<path d="M91.5464 36.93C91.5594 37.631 91.4286 38.3273 91.162 38.9758C90.8954 39.6242 90.4987 40.2112 89.9964 40.7004C89.4941 41.1895 88.8969 41.5706 88.2416 41.8199C87.5863 42.0692 86.8868 42.1816 86.1864 42.15C85.4878 42.1448 84.797 42.002 84.1536 41.7298C83.5101 41.4576 82.9266 41.0613 82.4363 40.5636C81.946 40.0658 81.5586 39.4764 81.2961 38.8289C81.0336 38.1815 80.9011 37.4887 80.9064 36.79C80.9117 36.0914 81.0545 35.4006 81.3267 34.7572C81.5989 34.1138 81.9952 33.5302 82.4929 33.0399C82.9906 32.5496 83.58 32.1622 84.2275 31.8997C84.8749 31.6372 85.5678 31.5048 86.2664 31.51C86.9797 31.4803 87.6914 31.6012 88.3548 31.865C89.0183 32.1288 89.6187 32.5294 90.1169 33.0408C90.6151 33.5522 90.9999 34.1629 91.2462 34.833C91.4925 35.5032 91.5948 36.2177 91.5464 36.93V36.93Z" stroke="#5F4C8C" stroke-width="1.5" stroke-miterlimit="10"/>
<path d="M60.0377 24.8C60.0377 23.8 60.0377 22.8 60.0377 21.8C60.0044 21.6092 60.0166 21.4132 60.0734 21.228C60.1301 21.0428 60.2298 20.8736 60.3643 20.7343C60.4988 20.5949 60.6643 20.4893 60.8474 20.4259C61.0304 20.3626 61.2258 20.3435 61.4177 20.37C63.9477 20.37 66.4177 20.37 68.9977 20.37C69.1792 20.3448 69.364 20.3612 69.5382 20.4179C69.7124 20.4746 69.8714 20.5701 70.0034 20.6972C70.1353 20.8243 70.2366 20.9797 70.2997 21.1517C70.3629 21.3236 70.3861 21.5077 70.3677 21.69C70.3677 23.69 70.3677 25.69 70.3677 27.63C70.3677 28.35 69.9277 28.55 69.3077 28.56C66.6077 28.63 63.9077 28.69 61.2077 28.78C60.3577 28.78 59.9477 28.53 60.0077 27.62C60.0677 26.71 60.0377 25.73 60.0377 24.8Z" stroke="#5F4C8C" stroke-width="1.5" stroke-miterlimit="10"/>
<path d="M53.5464 20.38C54.7164 20.38 55.8964 20.38 57.0664 20.38C58.2364 20.38 58.7564 20.81 58.7464 21.97C58.7464 23.87 58.7464 25.76 58.7464 27.66C58.7464 28.47 58.4864 28.82 57.6564 28.79C54.8164 28.68 51.9864 28.59 49.1464 28.51C48.4864 28.51 48.3264 28.19 48.3364 27.57C48.3764 25.63 48.3764 23.69 48.3364 21.75C48.3364 20.75 48.7564 20.35 49.7264 20.38C50.9764 20.4 52.2464 20.38 53.5464 20.38Z" stroke="#5F4C8C" stroke-width="1.5" stroke-miterlimit="10"/>
<path d="M41.6465 20.3801C42.8665 20.3801 44.0865 20.3801 45.3065 20.3801C46.5265 20.3801 47.0065 20.8501 47.0065 21.9601C47.0065 23.7701 47.0065 25.5701 47.0065 27.3701C47.0065 28.0801 46.7065 28.3001 46.0065 28.2501C43.0865 28.0501 40.2065 27.5801 37.3165 27.1801C36.6765 27.1001 36.4965 26.7701 36.4965 26.1801C36.4965 24.6901 36.4965 23.1801 36.4965 21.7101C36.4751 21.5285 36.4955 21.3445 36.5561 21.172C36.6167 20.9995 36.7159 20.8431 36.8461 20.7148C36.9763 20.5865 37.1342 20.4896 37.3076 20.4316C37.481 20.3736 37.6653 20.356 37.8465 20.3801H41.6465Z" stroke="#5F4C8C" stroke-width="1.5" stroke-miterlimit="10"/>
<path d="M71.7069 24.5499V21.7099C71.6837 21.5289 71.7026 21.3449 71.7619 21.1723C71.8212 20.9997 71.9194 20.8431 72.049 20.7145C72.1785 20.586 72.3359 20.4889 72.5089 20.4309C72.6819 20.3729 72.866 20.3554 73.0468 20.3799H80.6269C81.5469 20.3799 82.0469 20.7499 82.0169 21.7599C82.0169 23.2899 82.0169 24.8299 82.0169 26.3599C82.0169 27.0999 81.7169 27.3599 81.0169 27.4599C78.2869 27.6999 75.5869 28.1799 72.8469 28.3299C71.8469 28.3899 71.6868 28.1099 71.7468 27.2599C71.8068 26.4099 71.7468 25.4499 71.7468 24.5499H71.7069Z" stroke="#5F4C8C" stroke-width="1.5" stroke-miterlimit="10"/>
<path d="M58.2969 122.52H61.9969L70.0569 130.29V127.8C70.0569 126.8 70.3969 126.2 71.4569 126.23C72.5169 126.26 72.5469 126.99 72.5469 127.8C72.5469 129.74 72.5469 131.69 72.5469 133.63C72.5469 134.58 72.3069 135.04 71.2569 135.01C69.2569 134.95 67.1869 135.01 65.1569 135.01C64.3569 135.01 63.8269 134.78 63.8169 133.9C63.7964 133.719 63.8169 133.535 63.8769 133.363C63.9369 133.19 64.0347 133.033 64.1633 132.904C64.2919 132.774 64.4479 132.675 64.6199 132.614C64.7918 132.553 64.9753 132.531 65.1569 132.55C66.0469 132.55 66.9269 132.55 68.1569 132.55C64.7169 129.02 61.5469 125.8 58.2969 122.52Z" fill="#EF781F"/>
<path d="M76.9079 19.9001C75.9538 19.8792 75.0458 19.4854 74.3785 18.8031C73.7112 18.1209 73.3377 17.2044 73.3379 16.2501C73.3614 15.5592 73.5873 14.8905 73.9875 14.3268C74.3876 13.7632 74.9445 13.3294 75.5889 13.0794C76.2334 12.8293 76.9371 12.774 77.6127 12.9202C78.2883 13.0665 78.9061 13.4079 79.3894 13.9021C79.8728 14.3962 80.2004 15.0214 80.3316 15.7001C80.4629 16.3788 80.392 17.0811 80.1277 17.7198C79.8634 18.3586 79.4174 18.9057 78.8451 19.2933C78.2727 19.6809 77.5991 19.8918 76.9079 19.9001Z" stroke="#5F4C8C" stroke-width="1.5" stroke-miterlimit="10"/>
<path d="M65.0973 19.8899C64.4023 19.872 63.7281 19.6487 63.1598 19.2481C62.5916 18.8475 62.1547 18.2876 61.9043 17.639C61.6538 16.9904 61.6011 16.2822 61.7526 15.6036C61.9042 14.9251 62.2534 14.3067 62.756 13.8263C63.2586 13.3459 63.8923 13.0252 64.577 12.9045C65.2617 12.7838 65.9668 12.8686 66.6033 13.1482C67.2399 13.4277 67.7795 13.8896 68.1539 14.4754C68.5283 15.0612 68.7209 15.7448 68.7073 16.4399C68.676 17.3727 68.2806 18.2562 67.6058 18.9011C66.9311 19.5459 66.0306 19.9009 65.0973 19.8899Z" stroke="#5F4C8C" stroke-width="1.5" stroke-miterlimit="10"/>
<path d="M53.4066 12.8501C54.342 12.8572 55.2386 13.2252 55.9093 13.8773C56.58 14.5294 56.9731 15.4152 57.0065 16.3501C56.9598 17.2807 56.5664 18.1601 55.9039 18.8152C55.2414 19.4704 54.3576 19.8538 53.4266 19.8901C52.5628 19.7976 51.7638 19.389 51.1831 18.7429C50.6025 18.0968 50.2812 17.2588 50.2813 16.3901C50.2812 15.5214 50.6025 14.6834 51.1831 14.0373C51.7638 13.3912 52.5628 12.9826 53.4266 12.8901L53.4066 12.8501Z" stroke="#5F4C8C" stroke-width="1.5" stroke-miterlimit="10"/>
<path d="M39.6965 19.09C39.0573 18.6286 38.5948 17.9626 38.3857 17.2025C38.1765 16.4423 38.2333 15.6335 38.5465 14.91C38.8673 14.2706 39.3694 13.7399 39.9901 13.3842C40.6109 13.0285 41.3226 12.8636 42.0365 12.91C42.7537 12.9868 43.4311 13.2778 43.9805 13.7452C44.5298 14.2125 44.9257 14.8345 45.1165 15.53C45.3585 16.2897 45.3043 17.1128 44.9649 17.8342C44.6255 18.5556 44.026 19.1221 43.2865 19.42C42.7005 19.6315 42.0752 19.7116 41.4548 19.6546C40.8344 19.5975 40.2341 19.4048 39.6965 19.09V19.09Z" stroke="#5F4C8C" stroke-width="1.5" stroke-miterlimit="10"/>
<path d="M39.6973 19.8C40.8795 20.0527 42.0902 20.1469 43.2973 20.08C42.7668 20.4818 42.1075 20.6752 41.4441 20.6236C40.7807 20.572 40.1592 20.279 39.6973 19.8Z" fill="#AA88AC"/>
<path d="M66.7773 42.8501H69.8673C69.3807 43.0653 68.8545 43.1765 68.3223 43.1765C67.7902 43.1765 67.264 43.0653 66.7773 42.8501Z" fill="#5F4C8C"/>
<path d="M84.157 138.14C84.157 137.07 84.6669 136.03 84.3869 134.95C84.2669 134.47 84.637 134.44 84.787 134.55C85.397 134.99 86.277 135.07 86.607 135.93C86.8105 136.349 86.8949 136.816 86.8508 137.28C86.8067 137.744 86.6358 138.187 86.357 138.56C86.227 138.74 86.087 138.98 85.917 139.04C85.347 139.2 85.067 140.18 84.487 139.85C83.907 139.52 84.177 138.74 84.157 138.14Z" fill="white"/>
<path d="M82.5481 128.51C82.4705 128.749 82.4301 128.999 82.4281 129.25C82.4281 129.63 82.7581 130.17 82.3481 130.33C81.9381 130.49 81.4481 130.06 81.0981 129.72C80.78 129.435 80.5498 129.066 80.4346 128.655C80.3195 128.244 80.3241 127.808 80.4481 127.4C80.5313 127.008 80.7444 126.655 81.053 126.399C81.3615 126.144 81.7474 125.999 82.1481 125.99C82.9181 126.08 82.4081 126.99 82.5381 127.54C82.568 127.863 82.5713 128.187 82.5481 128.51Z" fill="white"/>
<path d="M59.9171 7.86996C59.9171 7.29996 59.9171 6.73996 59.9171 6.16996C59.8969 6.06048 59.903 5.94775 59.935 5.84112C59.9671 5.73449 60.0241 5.63704 60.1013 5.55686C60.1786 5.47668 60.2738 5.41608 60.3792 5.3801C60.4845 5.34411 60.597 5.33378 60.7071 5.34996H65.0271C65.1307 5.33619 65.236 5.34577 65.3353 5.378C65.4347 5.41022 65.5256 5.46427 65.6013 5.53619C65.6771 5.60811 65.7358 5.69607 65.7731 5.79362C65.8105 5.89117 65.8255 5.99584 65.8171 6.09996C65.8171 7.22996 65.8171 8.36996 65.8171 9.49996C65.8171 9.90996 65.5571 10.02 65.2071 10.03L60.5871 10.15C60.0971 10.15 59.8671 10.01 59.8971 9.48996C59.9271 8.96996 59.9171 8.40996 59.9171 7.86996Z" stroke="#5F4C8C" stroke-width="1.5" stroke-miterlimit="10"/>
<path d="M56.1975 5.34991H58.1975C58.8275 5.34991 59.1975 5.59991 59.1975 6.25991C59.1975 7.33991 59.1975 8.41991 59.1975 9.50991C59.1975 9.96991 59.0375 10.1699 58.5675 10.1499L53.6775 9.99991C53.3075 9.99991 53.2075 9.80991 53.2175 9.45991C53.2175 8.34991 53.2175 7.23991 53.2175 6.12991C53.2175 5.57991 53.4575 5.33991 54.0075 5.34991H56.1975Z" stroke="#5F4C8C" stroke-width="1.5" stroke-miterlimit="10"/>
<path d="M49.427 5.35012C50.117 5.35012 50.817 5.35012 51.507 5.35012C52.197 5.35012 52.507 5.61012 52.507 6.25012C52.507 7.25012 52.507 8.31012 52.507 9.34012C52.507 9.74012 52.337 9.87012 51.937 9.84012C50.267 9.72012 48.627 9.46012 46.937 9.23012C46.567 9.23012 46.467 8.99012 46.467 8.66012C46.467 7.81012 46.467 6.96012 46.467 6.11012C46.4557 6.00667 46.4679 5.90201 46.5027 5.80395C46.5376 5.70589 46.5941 5.61699 46.6682 5.54389C46.7423 5.47079 46.8319 5.41539 46.9304 5.38183C47.0289 5.34827 47.1337 5.33743 47.237 5.35012H49.427Z" stroke="#5F4C8C" stroke-width="1.5" stroke-miterlimit="10"/>
<path d="M66.5464 7.73011V6.11011C66.5334 6.0072 66.5441 5.90268 66.5777 5.80454C66.6112 5.7064 66.6668 5.61724 66.7402 5.54389C66.8135 5.47055 66.9027 5.41495 67.0008 5.38136C67.099 5.34777 67.2035 5.33708 67.3064 5.35011H71.6364C72.1564 5.35011 72.4464 5.56011 72.4264 6.14011C72.4264 7.01011 72.4264 7.89011 72.4264 8.77011C72.4264 9.19011 72.2664 9.36011 71.8464 9.39011C70.2864 9.53011 68.7464 9.80011 67.1764 9.89011C66.6464 9.92011 66.5464 9.80011 66.5464 9.28011C66.5464 8.76011 66.5464 8.28011 66.5464 7.73011V7.73011Z" stroke="#5F4C8C" stroke-width="1.5" stroke-miterlimit="10"/>
<path d="M69.5469 5.07C69.0101 5.05184 68.5014 4.82576 68.1282 4.43951C67.755 4.05326 67.5466 3.53708 67.5469 3C67.5469 2.46957 67.7576 1.96086 68.1327 1.58579C68.5077 1.21071 69.0164 1 69.5469 1C70.0773 1 70.586 1.21071 70.9611 1.58579C71.3362 1.96086 71.5469 2.46957 71.5469 3C71.5563 3.26847 71.5115 3.53609 71.4152 3.78688C71.3189 4.03767 71.1731 4.26649 70.9864 4.45969C70.7998 4.65288 70.5761 4.80649 70.3288 4.91135C70.0814 5.01621 69.8155 5.07016 69.5469 5.07Z" stroke="#5F4C8C" stroke-width="1.5" stroke-miterlimit="10"/>
<path d="M62.8066 5.07002C62.2762 5.07002 61.7675 4.85931 61.3924 4.48423C61.0174 4.10916 60.8066 3.60045 60.8066 3.07002C60.8172 2.53959 61.0381 2.03509 61.4207 1.66752C61.8033 1.29995 62.3162 1.09941 62.8466 1.11002C63.3771 1.12063 63.8816 1.34152 64.2491 1.72409C64.6167 2.10666 64.8173 2.61959 64.8066 3.15002C64.786 3.66646 64.5662 4.15485 64.1933 4.51279C63.8205 4.87074 63.3235 5.07043 62.8066 5.07002Z" stroke="#5F4C8C" stroke-width="1.5" stroke-miterlimit="10"/>
<path d="M56.1367 1.05005C56.6616 1.06752 57.1602 1.28384 57.5316 1.65519C57.9029 2.02655 58.1192 2.52517 58.1367 3.05005C58.108 3.57114 57.888 4.06331 57.519 4.43233C57.15 4.80136 56.6578 5.0213 56.1367 5.05005C55.6063 5.05005 55.0976 4.83934 54.7225 4.46426C54.3474 4.08919 54.1367 3.58048 54.1367 3.05005C54.1367 2.51962 54.3474 2.01091 54.7225 1.63584C55.0976 1.26076 55.6063 1.05005 56.1367 1.05005V1.05005Z" stroke="#5F4C8C" stroke-width="1.5" stroke-miterlimit="10"/>
<path d="M48.3076 4.61993C47.9466 4.35249 47.6861 3.97124 47.5681 3.53766C47.4502 3.10407 47.4818 2.64341 47.6576 2.22993C47.8352 1.85682 48.1209 1.54573 48.4775 1.33708C48.8342 1.12843 49.2454 1.03187 49.6576 1.05993C50.0702 1.09691 50.4611 1.26108 50.7764 1.52978C51.0917 1.79847 51.3157 2.15843 51.4176 2.55993C51.5588 2.98658 51.5343 3.45072 51.3491 3.86015C51.1638 4.26958 50.8313 4.59435 50.4176 4.76993C50.0772 4.90486 49.7108 4.96144 49.3455 4.93547C48.9803 4.90951 48.6255 4.80166 48.3076 4.61993V4.61993Z" stroke="#5F4C8C" stroke-width="1.5" stroke-miterlimit="10"/>
<path d="M48.3066 5.03003C48.9831 5.17505 49.6763 5.22553 50.3666 5.18003C50.064 5.41047 49.6876 5.5224 49.3083 5.49478C48.9289 5.46715 48.5727 5.30188 48.3066 5.03003Z" fill="#AA88AC"/>
</svg>
