<svg width="115" height="129" viewBox="0 0 115 129" fill="none" xmlns="http://www.w3.org/2000/svg">
<path d="M83.8798 74.857C79.3898 74.857 74.8798 74.857 70.4098 74.857C70.2222 74.8881 70.0302 74.8809 69.8454 74.8358C69.6606 74.7907 69.4868 74.7087 69.3345 74.5948C69.1822 74.4808 69.0546 74.3372 68.9593 74.1726C68.8639 74.008 68.8029 73.8258 68.7798 73.637C67.1788 67.8533 65.9793 61.966 65.1898 56.017C65.0222 55.0255 64.4684 54.1409 63.6498 53.557C61.3316 51.5416 59.3677 49.1518 57.8398 46.487C56.134 43.6829 54.9072 40.6142 54.2098 37.407C53.4937 33.7059 53.3856 29.9128 53.8898 26.177C54.4864 21.5852 56.1809 17.2048 58.8298 13.407C61.0279 10.034 63.9005 7.15274 67.2669 4.94463C70.6333 2.73652 74.4204 1.24942 78.3898 0.57698C84.5383 -0.650379 90.9171 0.0914314 96.6198 2.69698C101.93 5.06489 106.449 8.9074 109.64 13.768C112.831 18.6286 114.559 24.303 114.62 30.117C114.741 34.9906 113.713 39.8243 111.62 44.227C110.207 47.2603 108.232 49.9986 105.8 52.297C104.653 53.3896 103.892 54.8248 103.63 56.387C102.32 62.387 100.46 68.197 98.9198 74.117C98.6898 75.007 98.1198 74.867 97.5398 74.867H83.8798V74.857Z" fill="#5F4C8C"/>
<path d="M81.741 97.5669C80.631 98.7169 79.831 99.5669 78.961 100.427C77.961 101.427 76.961 101.427 76.151 100.577C75.973 100.378 75.8382 100.145 75.7554 99.8917C75.6725 99.6384 75.6433 99.3705 75.6697 99.1052C75.696 98.8399 75.7773 98.5831 75.9084 98.3509C76.0394 98.1188 76.2174 97.9165 76.431 97.7569C78.241 95.9269 80.051 94.1069 81.901 92.3169C83.201 91.0469 83.901 91.0569 85.221 92.3169C87.051 94.0169 88.901 95.8169 90.701 97.6169C90.9723 97.8082 91.2012 98.0535 91.3733 98.3375C91.5454 98.6214 91.6569 98.9378 91.701 99.2669C91.7143 99.6445 91.6084 100.017 91.3985 100.331C91.1885 100.645 90.885 100.885 90.531 101.017C90.2255 101.192 89.8684 101.255 89.5214 101.195C89.1745 101.134 88.8595 100.955 88.631 100.687C87.701 99.6869 86.811 98.5969 85.911 97.5569C85.6863 97.7289 85.5153 97.9613 85.4179 98.227C85.3205 98.4926 85.3008 98.7805 85.361 99.0569C85.401 104.097 85.451 109.137 85.511 114.177C85.4409 116.011 84.7886 117.775 83.6487 119.213C82.5088 120.652 80.9404 121.69 79.171 122.177C77.2948 122.632 75.3211 122.458 73.5538 121.681C71.7865 120.904 70.3237 119.567 69.391 117.877C68.6583 116.407 68.2717 114.789 68.261 113.147C68.261 110.997 68.201 108.847 68.171 106.687C68.171 106.107 68.171 105.487 67.451 105.317C66.731 105.147 66.451 105.647 66.231 106.087C65.8618 106.735 65.528 107.403 65.231 108.087C63.671 111.427 60.931 111.417 57.961 110.807C57.752 110.753 57.5557 110.659 57.3833 110.529C57.2108 110.4 57.0656 110.238 56.956 110.052C56.8464 109.866 56.7745 109.66 56.7445 109.447C56.7145 109.233 56.7268 109.016 56.781 108.807C56.911 107.877 57.561 107.077 58.441 107.197C60.871 107.537 61.921 106.337 62.681 104.257C63.171 102.927 64.501 102.147 65.681 101.327C66.059 101.083 66.4944 100.943 66.9436 100.92C67.3928 100.897 67.8402 100.993 68.241 101.197C70.301 102.087 72.011 103.297 72.041 105.867C72.071 108.437 72.131 111.017 72.221 113.587C72.2105 114.291 72.3544 114.989 72.6426 115.632C72.9308 116.274 73.3563 116.846 73.8891 117.306C74.422 117.766 75.0493 118.105 75.7268 118.296C76.4044 118.488 77.1158 118.529 77.811 118.417C78.7249 118.213 79.5562 117.739 80.1966 117.056C80.8369 116.372 81.2566 115.512 81.401 114.587C81.6674 112.167 81.7743 109.731 81.721 107.297C81.821 104.237 81.741 101.147 81.741 97.5669Z" fill="#EF781F"/>
<path d="M84.0906 76.5469C88.8206 76.5469 93.5406 76.5469 98.2606 76.5469C99.2606 76.5469 99.7406 76.7269 99.7006 77.9069C99.6206 80.4969 99.7006 80.4969 97.1306 80.4969C88.0106 80.4969 78.8906 80.4969 69.7806 80.4969C68.6006 80.4969 68.1306 80.3069 68.1906 78.9969C68.3106 76.5469 68.1906 76.5469 70.6306 76.5469H84.0906Z" fill="#5F4C8C"/>
<path d="M84.1908 86.367C80.5508 86.367 76.9008 86.367 73.2508 86.367C72.4008 86.367 72.1508 86.117 72.1408 85.257C72.1408 82.417 72.0708 82.417 74.8708 82.417C81.4608 82.417 88.0508 82.417 94.6508 82.417C95.7508 82.417 96.0808 82.697 96.0508 83.817C95.9808 86.367 96.0508 86.367 93.4508 86.367H84.1908Z" fill="#5F4C8C"/>
<path fill-rule="evenodd" clip-rule="evenodd" d="M43.6379 123.155C43.7791 122.914 43.8363 122.634 43.8007 122.357C43.8803 121.574 43.4758 121.02 43.0806 120.479C42.8801 120.204 42.682 119.933 42.5507 119.637C42.51 119.542 42.4586 119.453 42.4089 119.367C42.2389 119.074 42.0892 118.815 42.4607 118.467C42.9407 118.017 43.4907 117.727 44.0207 118.117C44.3489 118.358 44.7038 118.554 45.0572 118.748C45.2745 118.868 45.4912 118.987 45.7007 119.117C45.8779 119.288 46.0955 119.413 46.3333 119.478C46.5712 119.544 46.8217 119.548 47.0617 119.491C47.3018 119.435 47.5237 119.318 47.707 119.153C47.8903 118.988 48.0292 118.78 48.1107 118.547C49.2707 116.457 50.4707 114.457 51.6907 112.457C52.3107 111.397 51.5607 110.817 50.9507 110.397C50.6341 110.179 50.2932 110.004 49.9519 109.829C49.6356 109.667 49.3189 109.504 49.0207 109.307C48.5507 108.997 48.3407 108.747 48.5507 108.237C48.576 108.175 48.5998 108.113 48.6232 108.052C48.7944 107.605 48.9524 107.193 49.6207 107.237H51.3007C53.1907 107.237 53.3607 107.077 53.3007 105.237C53.2723 104.825 53.3407 104.413 53.5005 104.033C53.6603 103.652 53.9069 103.315 54.2207 103.047C54.8657 102.438 55.4883 101.805 56.1106 101.172C56.8679 100.401 57.6247 99.6315 58.4207 98.9069C59.4207 97.9869 59.4907 97.2369 58.4207 96.4069C58.3002 96.3105 58.1936 96.1955 58.0865 96.0798C57.9713 95.9555 57.8554 95.8305 57.7207 95.7269C57.0407 95.1869 57.0407 94.6669 57.3007 93.7969C57.7207 92.3969 58.5407 92.2369 59.7807 92.2969C61.6407 92.3669 61.7807 92.1669 61.7807 90.2969V84.4069C61.7807 81.9869 61.7207 81.9269 59.2407 81.9269C58.9077 81.9921 58.5625 81.9498 58.2552 81.806C57.9478 81.6622 57.6941 81.4243 57.5307 81.1269C56.8207 79.9169 57.2007 79.2369 58.0907 78.4069C59.6407 77.0169 59.5407 76.5169 58.0907 75.0169L58.0905 75.0167C56.6406 73.5167 55.1907 72.0168 53.7207 70.6469C53.5756 70.4637 53.3909 70.3157 53.1805 70.2139C52.9701 70.1122 52.7394 70.0593 52.5057 70.0593C52.272 70.0593 52.0413 70.1122 51.8309 70.2139C51.6205 70.3157 51.4358 70.4637 51.2907 70.6469C50.9052 70.9874 50.5412 71.3514 50.2007 71.7369C49.8207 72.2069 49.4707 72.1669 48.9007 72.0169C47.4607 71.6169 47.0007 70.8169 47.1507 69.3869C47.2907 67.5669 46.9407 67.3069 45.0907 67.3069H39.3307C37.0707 67.3069 37.0707 67.3269 37.0707 69.6169C37.0682 69.7637 37.083 69.9157 37.0978 70.0687C37.1417 70.5202 37.1865 70.9809 36.7907 71.3469C36.5586 71.5856 36.2791 71.7729 35.9701 71.8968C35.6611 72.0206 35.3295 72.0783 34.9968 72.0661C34.6642 72.0538 34.3378 71.9719 34.0387 71.8256C33.7397 71.6794 33.4746 71.472 33.2607 71.2169C33.2037 71.1598 33.1466 71.1039 33.0899 71.0483C32.9777 70.9384 32.867 70.8298 32.7607 70.7169C31.9607 69.7969 31.2007 69.8869 30.3907 70.7169C29.2264 71.925 28.0314 73.1101 26.8394 74.2923C26.6697 74.4605 26.5001 74.6287 26.3307 74.7969C26.089 75.1276 25.7323 75.3559 25.3307 75.4369C24.9749 75.4695 24.6074 75.4233 24.2407 75.3772C23.484 75.2821 22.7306 75.1874 22.0907 75.7869C21.4441 76.3926 21.5387 77.2022 21.6336 78.0139C21.6781 78.3947 21.7227 78.776 21.6907 79.1369C21.6969 79.3667 21.6237 79.5916 21.4834 79.7737C21.3432 79.9558 21.1445 80.0841 20.9207 80.1369C20.4507 80.2369 19.8707 80.2969 19.6107 79.7469C19.4562 79.4199 19.2627 79.1177 19.0703 78.8171C18.9391 78.6121 18.8083 78.4078 18.6907 78.1969C17.9107 76.8269 17.3407 76.5469 15.9107 77.3969C15.6006 77.5812 15.2909 77.767 14.9811 77.9528C13.8624 78.6239 12.7419 79.296 11.5907 79.9069C8.86072 81.3469 8.82072 81.4069 10.3907 84.0069C10.4454 84.0979 10.4876 84.1952 10.5296 84.2921C10.5799 84.408 10.6299 84.5234 10.7007 84.6269C11.0707 85.1069 11.2107 85.5969 10.6207 86.1069C10.0307 86.6169 9.67072 86.5969 9.12072 86.1069C8.74799 85.8375 8.35327 85.6 7.94072 85.3969C6.54072 84.5169 5.71072 84.6269 4.87072 86.1869C4.03072 87.7469 3.16072 89.2569 2.24072 90.7469C1.08072 92.6769 1.08072 93.0869 3.08072 94.3169C3.20323 94.392 3.32261 94.4749 3.44258 94.5582C3.62618 94.6856 3.81113 94.8141 4.01072 94.9169C4.55072 95.1769 4.89072 95.5369 4.71072 96.1769C4.53072 96.8169 4.22072 97.0169 3.53072 97.0169H1.53072C0.480721 97.0169 0.000720804 97.4669 0.0107208 98.6369V103.967C0.00992213 104.234 0.00720982 104.479 0.00471341 104.705C-0.0240472 107.309 -0.0241532 107.319 3.26072 107.227C4.06072 107.157 4.40072 107.257 4.66072 108.227C4.86943 109.006 4.5111 109.166 4.11332 109.343C4.01556 109.387 3.91541 109.432 3.82072 109.487C3.25611 109.79 2.70861 110.124 2.18072 110.487C1.9849 110.591 1.81527 110.739 1.68456 110.918C1.55386 111.098 1.46546 111.304 1.42602 111.523C1.38657 111.741 1.39709 111.966 1.45679 112.179C1.51648 112.393 1.62381 112.591 1.77072 112.757C2.23557 113.446 2.64061 114.174 3.04634 114.903C3.38251 115.507 3.71917 116.112 4.09072 116.697C4.40915 117.197 4.65665 117.636 4.86674 118.009C5.88383 119.814 6.02415 120.063 9.09072 118.107C9.74414 117.666 10.0512 117.947 10.3847 118.252C10.4901 118.349 10.5982 118.448 10.7207 118.527C11.2993 118.903 11.0648 119.171 10.8276 119.443C10.7492 119.532 10.6704 119.622 10.6207 119.717C10.402 120.276 10.1166 120.806 9.77072 121.297C8.79072 122.407 9.41072 123.107 10.3107 123.677C11.3507 124.33 12.4174 124.948 13.4841 125.566C14.0174 125.875 14.5507 126.184 15.0807 126.497C17.2607 127.787 17.8007 127.647 19.0807 125.387C19.1146 125.327 19.1471 125.265 19.1798 125.203C19.2338 125.1 19.2884 124.997 19.3507 124.897C19.3861 124.833 19.4193 124.767 19.4524 124.701C19.653 124.301 19.8498 123.909 20.5107 124.107C21.2807 124.337 21.7407 124.547 21.6207 125.457C21.5874 125.824 21.5985 126.199 21.6096 126.575C21.6152 126.762 21.6207 126.95 21.6207 127.137C21.5407 128.347 22.1007 128.787 23.2907 128.787H28.3407C30.1161 128.792 30.9806 128.882 31.3923 128.494C31.7898 128.118 31.7651 127.295 31.7307 125.517C31.7455 125.377 31.7455 125.236 31.7307 125.097C31.6015 124.459 31.9027 124.356 32.3183 124.213C32.4173 124.179 32.5229 124.143 32.6307 124.097C33.1907 123.857 33.4907 124.127 33.7307 124.617C33.8874 124.937 34.0782 125.244 34.2698 125.552C34.3716 125.716 34.4735 125.88 34.5707 126.047C35.4107 127.517 35.9707 127.687 37.4807 126.837C38.2726 126.394 39.0609 125.939 39.8471 125.484C40.9075 124.872 41.9641 124.261 43.0207 123.687C43.2797 123.583 43.4967 123.396 43.6379 123.155ZM44.6973 89.0711C44.2274 89.4021 43.7522 89.737 43.0505 89.737C42.626 89.8142 42.3411 89.5376 42.0341 89.2396C42.0229 89.2287 42.0117 89.2179 42.0005 89.207C41.3314 88.4988 40.6271 87.8246 39.8905 87.187C39.6536 87.0387 39.4532 86.8389 39.3041 86.6025C39.1551 86.3661 39.0612 86.0991 39.0295 85.8214C38.9978 85.5438 39.0291 85.2625 39.121 84.9986C39.2129 84.7347 39.3632 84.4949 39.5605 84.297C40.699 82.6535 40.6712 82.6371 39.0209 81.6666L38.9705 81.637C36.6705 80.297 36.6605 80.297 35.3605 82.467C35.2812 82.6713 35.1607 82.8572 35.0065 83.0131C34.8524 83.1689 34.6678 83.2915 34.4644 83.373C34.2609 83.4546 34.0428 83.4935 33.8237 83.4873C33.6046 83.4811 33.389 83.4299 33.1905 83.337C32.4115 83.0492 31.6083 82.8317 30.7905 82.687C29.9305 82.507 28.9505 82.287 28.8805 81.027C28.8657 80.7607 28.8912 80.4604 28.9168 80.1585C28.9777 79.4399 29.0393 78.7127 28.5605 78.417C28.0737 78.1163 27.3511 78.1744 26.6386 78.2316C26.3559 78.2544 26.0747 78.277 25.8105 78.277C25.624 78.287 25.437 78.287 25.2505 78.277C24.6805 78.237 24.3005 78.427 24.4105 79.057C24.8605 81.617 23.5805 82.727 21.2005 82.987C20.8889 83.0597 20.5843 83.1601 20.2905 83.287C20.0441 83.3906 19.7793 83.4438 19.512 83.4434C19.2446 83.443 18.9801 83.389 18.7339 83.2846C18.4878 83.1802 18.2651 83.0275 18.079 82.8355C17.8929 82.6435 17.7472 82.4162 17.6505 82.167C16.6505 80.247 16.5705 80.267 14.6505 81.357C14.4731 81.5065 14.2784 81.634 14.0705 81.737C12.5405 82.247 12.7205 83.027 13.5405 84.147C14.7105 85.737 14.6105 85.987 13.1905 87.417C12.6365 87.9226 12.1091 88.4567 11.6105 89.017C11.4776 89.2083 11.3071 89.3705 11.1093 89.4935C10.9115 89.6166 10.6907 89.6979 10.4603 89.7326C10.23 89.7672 9.99497 89.7544 9.76973 89.695C9.5445 89.6356 9.33378 89.5308 9.15051 89.387C8.68414 89.1842 8.2387 88.9363 7.82051 88.647C7.20051 88.107 6.85051 88.327 6.53051 88.937C6.40384 89.1836 6.25939 89.4214 6.11495 89.6592C6.04273 89.7781 5.97051 89.897 5.90051 90.017C4.74299 92.0127 4.75047 92.017 6.52905 93.0304L6.54051 93.037C6.55763 93.0488 6.57485 93.0606 6.59213 93.0726C7.29175 93.5547 8.11159 94.1196 7.75051 95.037C7.54729 95.5533 7.44951 96.113 7.35179 96.6723C7.15618 97.7919 6.96081 98.9101 5.92051 99.677C5.77376 99.7851 5.53157 99.7739 5.29991 99.7632C5.23162 99.7601 5.16425 99.757 5.10051 99.757C3.77515 99.7922 3.11769 99.8097 2.79155 100.147C2.47051 100.48 2.47051 101.122 2.47051 102.397C2.48051 102.49 2.48051 102.584 2.47051 102.677C2.23051 103.997 2.82051 104.327 4.08051 104.277C6.45051 104.177 6.53051 104.317 7.14051 106.547C7.22113 106.847 7.30977 107.145 7.39835 107.443C7.50755 107.81 7.61665 108.177 7.71051 108.547C7.87096 108.934 7.88867 109.366 7.76047 109.765C7.63228 110.165 7.36651 110.505 7.01051 110.727C6.76949 110.89 6.46375 111.022 6.15965 111.153C5.53007 111.425 4.90748 111.694 4.88051 112.227C4.85285 112.773 5.24612 113.334 5.64018 113.896C5.81588 114.146 5.99174 114.397 6.13051 114.647C6.23087 114.806 6.31783 114.973 6.39051 115.147C6.64051 115.937 6.90051 115.977 7.73051 115.567C9.22178 114.813 9.80132 114.306 10.3258 114.358C10.8037 114.405 11.236 114.916 12.2705 116.127C12.4372 116.321 12.6501 116.47 12.8631 116.618C13.0335 116.736 13.2038 116.855 13.3505 116.997C14.0905 117.697 14.6105 118.357 13.8405 119.497C12.4507 121.587 12.5305 121.637 14.5895 122.936L14.5905 122.937C16.3105 124.007 16.3905 123.987 17.4805 122.257C17.5762 122.117 17.6828 121.983 17.7882 121.85C17.826 121.802 17.8636 121.754 17.9005 121.707C18.9801 120.294 20.0731 120.764 21.1675 121.235C21.7153 121.471 22.2635 121.707 22.8105 121.707C23.8005 121.687 24.3105 122.507 24.3805 123.507C24.5705 126.157 24.5805 126.157 27.2805 126.157H27.9805C28.6405 126.277 28.8805 125.937 28.8805 125.277C29.0701 122.203 29.0904 122.197 32.1723 121.282L32.1905 121.277C32.4581 121.204 32.7218 121.117 32.9805 121.017C33.1865 120.912 33.4112 120.849 33.6416 120.832C33.872 120.814 34.1036 120.843 34.323 120.915C34.5425 120.988 34.7453 121.103 34.92 121.254C35.0946 121.406 35.2375 121.59 35.3405 121.797C35.5134 122.04 35.6377 122.357 35.7591 122.667C35.9819 123.234 36.1951 123.778 36.6805 123.797C37.2037 123.818 37.7463 123.459 38.288 123.101C38.5229 122.946 38.7576 122.791 38.9905 122.667C39.8278 122.231 40.2478 122.031 40.3312 121.736C40.4142 121.442 40.1641 121.055 39.6605 120.247C38.6505 118.627 38.7005 118.177 40.1005 116.777C40.2316 116.646 40.3651 116.516 40.499 116.385C40.8349 116.057 41.173 115.727 41.4805 115.377C41.6273 115.156 41.8178 114.968 42.0402 114.824C42.2627 114.679 42.5123 114.582 42.7738 114.538C43.0352 114.494 43.3029 114.504 43.5604 114.567C43.8178 114.631 44.0595 114.746 44.2705 114.907C46.2827 116.112 46.3302 116.028 47.5067 113.932L47.5205 113.907C48.5105 112.157 48.5105 112.157 46.7505 111.157C45.3305 110.387 45.0805 109.747 45.5605 108.277C45.6931 107.879 45.7916 107.472 45.8899 107.065C45.9326 106.889 45.9752 106.712 46.0205 106.537C46.5105 104.627 46.9205 104.247 48.9205 104.367C50.2705 104.447 50.6805 103.957 50.4905 102.727C50.4754 102.541 50.4754 102.353 50.4905 102.167C50.4905 101.009 50.4905 100.434 50.203 100.148C49.9197 99.867 49.3573 99.867 48.2405 99.867C48.004 99.899 47.7634 99.8829 47.5333 99.8196C47.3032 99.7562 47.0882 99.647 46.9014 99.4985C46.7146 99.35 46.5597 99.1652 46.4461 98.9553C46.3326 98.7454 46.2626 98.5146 46.2405 98.277C46.0658 97.2808 45.798 96.3031 45.4405 95.357C45.3023 95.0361 45.2882 94.6753 45.4009 94.3445C45.5136 94.0138 45.7451 93.7367 46.0505 93.567C46.3056 93.3916 46.6227 93.2407 46.9389 93.0901C47.6144 92.7685 48.286 92.4487 48.3405 91.897C48.3963 91.3319 47.9266 90.7134 47.4575 90.0956C47.2541 89.8278 47.0508 89.5601 46.8905 89.297C46.8832 89.2539 46.8832 89.21 46.8905 89.167C46.6105 88.207 46.0305 88.297 45.3105 88.677C45.0957 88.7903 44.897 88.9304 44.6973 89.0711Z" fill="#5F4C8C"/>
<path d="M29.75 75.3669C30.06 75.0169 30.19 74.8869 30.3 74.7469C31.11 73.6669 31.91 73.1569 32.93 74.5769C33.64 75.5769 34.56 75.5769 35.59 74.9069C36.19 74.555 36.8316 74.2795 37.5 74.0869C39.87 73.2569 40.08 72.9169 39.8 70.0869C41.02 70.0869 42.23 70.0869 43.44 70.0869C44.2 70.0869 44.36 70.3769 44.38 71.0869C44.45 73.3669 44.48 73.3569 46.62 74.0869C46.9687 74.1638 47.3052 74.2883 47.62 74.4569C49.25 75.5669 50.73 75.7769 51.96 73.8769C52.25 73.4269 52.62 73.4569 52.96 73.8769C53.3 74.2969 53.62 74.5369 53.96 74.8769C54.55 75.4869 55.47 76.0269 55.6 76.7169C55.73 77.4069 54.65 77.8469 54.14 78.4369C53.9311 78.6604 53.8037 78.9478 53.7783 79.2526C53.7529 79.5574 53.831 79.8619 54 80.1169C54.5299 80.9884 54.9497 81.9222 55.25 82.8969C55.6 84.2569 56.31 84.8969 57.72 84.6869C58.91 84.4969 59.51 84.8769 59.27 86.1769C59.2449 86.4564 59.2449 86.7375 59.27 87.0169C59.27 89.3269 59.27 89.3669 57.01 89.4369C56.6343 89.4334 56.2695 89.563 55.9803 89.8028C55.6911 90.0426 55.4961 90.3771 55.43 90.7469C55.1357 91.9079 54.6526 93.0126 54 94.0169C53.8807 94.162 53.7919 94.3297 53.7388 94.5099C53.6857 94.6901 53.6694 94.8791 53.6908 95.0657C53.7123 95.2523 53.7711 95.4327 53.8637 95.5961C53.9563 95.7595 54.0809 95.9026 54.23 96.0169C54.75 96.4969 55.68 97.0169 55.6 97.5169C55.52 98.0169 54.68 98.6169 54.16 99.1569C53.97 99.3469 53.76 99.5269 53.56 99.7069C53.46 99.6069 53.35 99.5569 53.35 99.5069C53.45 97.3469 53.22 97.0169 50.75 97.0469C50.33 97.0469 49.91 97.0469 49.49 97.0469C48.79 97.0469 48.75 96.5169 48.49 96.0469C48.23 95.5769 48.58 95.3269 48.9 95.0469C49.66 94.4469 50.68 94.2569 51.34 93.4769C51.75 92.9969 51.99 92.6469 51.62 92.0169C50.4 89.9469 49.27 87.8269 48.03 85.7669C47.9359 85.5632 47.7976 85.383 47.6251 85.2394C47.4527 85.0959 47.2504 84.9926 47.0329 84.937C46.8155 84.8815 46.5885 84.8751 46.3683 84.9183C46.1481 84.9615 45.9403 85.0533 45.76 85.1869C45.2 85.5169 44.62 85.7969 44.08 86.1869C43.875 86.3341 43.622 86.3984 43.3716 86.3669C43.1213 86.3354 42.8921 86.2104 42.73 86.0169C42.6183 85.94 42.5245 85.8398 42.4552 85.7232C42.3858 85.6066 42.3425 85.4763 42.3283 85.3414C42.314 85.2065 42.3291 85.0701 42.3726 84.9416C42.416 84.8131 42.4868 84.6955 42.58 84.5969C42.63 84.5269 42.64 84.4169 42.7 84.3469C44.47 81.8469 44.35 81.3469 41.32 79.6169C39.99 78.8769 38.68 78.0769 37.32 77.3669C35.96 76.6569 35.38 76.7569 34.54 78.1669C34.28 78.6069 34.11 79.0969 33.84 79.5269C33.716 79.7834 33.5004 79.9842 33.2357 80.0897C32.9711 80.1952 32.6765 80.1978 32.41 80.0969C32.163 80.0287 31.9516 79.8682 31.8195 79.6486C31.6874 79.429 31.6446 79.1671 31.7 78.9169C31.75 78.4469 31.7 77.9769 31.7 77.5169C31.85 76.2069 31.37 75.3869 29.75 75.3669Z" fill="#EBE9EE"/>
<path d="M83.9314 70.9271C80.2914 70.9271 76.6414 70.9271 72.9914 70.9271C71.9214 70.9271 71.5114 70.5971 71.3614 69.5871C70.6114 64.7871 69.7914 60.0071 69.0514 55.2071C68.6614 52.6271 67.1214 50.7971 65.3414 49.0471C61.1897 45.0135 58.5611 39.6679 57.9014 33.9171C57.4499 30.5175 57.6835 27.062 58.5886 23.7541C59.4937 20.4463 61.0519 17.3532 63.1714 14.6571C65.2693 11.8829 67.8989 9.55449 70.9067 7.80793C73.9145 6.06138 77.2402 4.93168 80.6895 4.4848C84.1388 4.03793 87.6425 4.28285 90.9961 5.20526C94.3497 6.12766 97.4859 7.70906 100.221 9.85709C105.232 13.64 108.68 19.1305 109.911 25.2871C111.101 30.6919 110.483 36.3379 108.151 41.3571C106.6 44.6179 104.499 47.5878 101.941 50.1371C101.058 51.1786 100.474 52.44 100.251 53.7871C99.0014 59.2071 97.7614 64.6171 96.5814 70.0171C96.3814 70.9571 95.8314 70.9171 95.1614 70.9171L83.9314 70.9271Z" fill="#EBE9EE"/>
<path d="M90.1317 60.4369C89.5717 54.4369 90.9217 48.6469 92.4817 42.9069C92.8217 41.6669 93.1317 40.4169 93.3617 39.1469C93.4617 38.6269 94.0217 37.9269 93.4417 37.5569C92.5817 37.0269 91.6317 36.3069 90.4417 36.9369C88.7417 37.8869 87.0317 38.8069 85.4417 39.8469C85.0262 40.1936 84.5101 40.3973 83.9698 40.4279C83.4295 40.4585 82.8937 40.3144 82.4417 40.0169C80.8517 39.0169 79.1717 38.0869 77.5417 37.1269C76.9692 36.9136 76.3536 36.8421 75.7476 36.9188C75.1415 36.9954 74.563 37.2178 74.0617 37.5669C73.7617 37.9369 74.0617 38.1869 74.1617 38.4669C75.1617 42.9969 76.2717 47.5269 77.3717 52.0469C77.4733 52.4491 77.527 52.862 77.5317 53.2769C77.5317 58.0969 77.5317 62.9169 77.5317 67.7269C77.5317 68.7269 77.2717 68.9969 76.2817 68.9869C73.5817 68.9869 73.5817 68.9869 73.5817 66.2569C73.5817 65.2569 73.5117 64.1869 73.5817 63.1669C74.0917 56.8269 72.9617 50.7069 71.2517 44.6469C70.9517 43.5869 70.7717 42.4869 70.4717 41.4269C70.2517 40.6869 70.3317 39.9069 69.0917 39.5969C68.2617 39.3869 67.7417 37.9369 67.4417 36.8669C67.3017 36.3769 67.8717 36.2969 68.1617 36.1569C70.7917 34.9069 73.4617 33.7169 76.0817 32.4569C76.3045 32.3458 76.5542 32.3 76.8019 32.3248C77.0496 32.3496 77.2853 32.4439 77.4817 32.5969C79.0817 33.5269 80.7117 34.4169 82.2617 35.4169C82.6916 35.7427 83.2141 35.9232 83.7535 35.9322C84.2929 35.9412 84.8211 35.7782 85.2617 35.4669C86.8117 34.4669 88.4517 33.6069 90.0217 32.6269C90.2765 32.431 90.584 32.3158 90.9048 32.2962C91.2256 32.2766 91.5449 32.3535 91.8217 32.5169C94.1817 34.0169 96.8217 34.9269 99.2817 36.1869C100.222 36.6669 100.282 37.1869 99.7117 37.8669C99.1417 38.5469 99.1117 39.8669 97.7117 39.8669C97.3617 39.8669 97.4417 40.2769 97.3817 40.5369C96.2717 45.0969 95.0917 49.6469 94.0817 54.2369C93.9465 55.54 93.9465 56.8537 94.0817 58.1569C94.0817 61.3769 94.0817 64.6069 94.0817 67.8369C94.0817 68.7469 93.8417 69.0269 92.9117 69.0269C90.1417 69.0269 90.1417 69.0269 90.1417 66.3669L90.1317 60.4369Z" fill="#5F4C8C"/>
<path d="M93.4214 9.1871C94.6419 9.60419 95.8072 10.1683 96.8914 10.8671C99.0629 12.3143 100.823 14.2985 102.001 16.6271C102.361 17.2971 102.311 17.7471 101.581 18.0671C101.321 18.1771 101.081 18.3071 100.831 18.4271C98.6614 19.5071 98.7314 19.4271 97.4714 17.4271C96.2428 15.4388 94.3461 13.9533 92.1214 13.2371C91.1214 12.8971 91.1214 12.3971 91.6614 11.7571C92.0554 11.1893 92.3621 10.5657 92.5714 9.9071C92.7214 9.5671 92.8714 9.1571 93.4214 9.1871Z" fill="#5F4C8C"/>
<path d="M103.321 24.4969C103.321 26.7869 103.251 26.8569 101.151 26.8569C100.779 26.902 100.403 26.902 100.031 26.8569C99.551 26.7369 98.661 27.5869 98.711 26.7969C98.761 26.0069 98.641 24.6369 99.711 24.1169C100.591 23.7112 101.524 23.4285 102.481 23.2769C103.831 23.0169 103.051 24.1869 103.321 24.4969Z" fill="#5F4C8C"/>
<path fill-rule="evenodd" clip-rule="evenodd" d="M39.3413 102.887C39.8213 95.377 33.3413 89.097 26.5313 89.457L26.5413 89.417C23.2256 89.5099 20.0768 90.8924 17.7644 93.2705C15.4519 95.6487 14.1582 98.8349 14.1582 102.152C14.1582 105.469 15.4519 108.655 17.7644 111.033C20.0768 113.412 23.2256 114.794 26.5413 114.887C29.8111 114.925 32.9689 113.698 35.3545 111.461C37.7401 109.225 39.1686 106.152 39.3413 102.887ZM35.8606 106.024C36.335 104.809 36.5564 103.51 36.5111 102.207C36.8911 96.8769 31.8611 92.2869 27.0611 92.2469C20.7711 92.1269 16.4911 96.7769 16.6611 102.247C16.8411 108.117 20.7211 112.027 26.7211 112.117C28.025 112.146 29.3212 111.909 30.5302 111.42C31.7392 110.931 32.8355 110.2 33.7521 109.272C34.6687 108.344 35.3862 107.239 35.8606 106.024Z" fill="#5F4C8C"/>
<path fill-rule="evenodd" clip-rule="evenodd" d="M26.6807 111.047C32.1207 111.107 35.8007 106.007 35.3807 102.267C35.7007 97.3169 31.3507 93.5469 27.0607 93.3269C25.8667 93.2506 24.6695 93.4166 23.5414 93.8151C22.4132 94.2135 21.3773 94.836 20.496 95.6452C19.6146 96.4544 18.9062 97.4335 18.4131 98.5237C17.9201 99.6139 17.6527 100.792 17.627 101.989C17.6014 103.185 17.818 104.374 18.2639 105.484C18.7097 106.594 19.3756 107.603 20.2214 108.449C21.0672 109.296 22.0755 109.962 23.1855 110.408C24.2956 110.855 25.4845 111.072 26.6807 111.047ZM32.2365 104.376C32.5131 103.622 32.6301 102.819 32.58 102.017C33 99.127 29.6 96.067 26.79 96.087C25.9962 96.0785 25.2084 96.2264 24.4718 96.5223C23.7351 96.8182 23.0639 97.2563 22.4965 97.8116C21.9292 98.3669 21.4767 99.0285 21.1651 99.7586C20.8534 100.489 20.6886 101.273 20.68 102.067C20.6715 102.861 20.8194 103.649 21.1153 104.385C21.4112 105.122 21.8493 105.793 22.4046 106.361C22.9599 106.928 23.6215 107.38 24.3517 107.692C25.0818 108.004 25.8662 108.168 26.66 108.177C27.463 108.195 28.261 108.046 29.0035 107.74C29.7459 107.434 30.4167 106.977 30.9732 106.397C31.5297 105.818 31.9599 105.13 32.2365 104.376Z" fill="#5F4C8C"/>
</svg>
