<svg width="144" height="41" viewBox="0 0 144 41" fill="none" xmlns="http://www.w3.org/2000/svg">
<g clip-path="url(#clip0)">
<path d="M77.8639 23.2605L82.6453 31.6929H78.1859L71.4243 19.9167L74.892 19.9459C75.9185 19.9281 76.8973 19.5066 77.6193 18.7715C78.3413 18.0364 78.7492 17.0459 78.7558 16.0119C78.7644 15.4992 78.6656 14.9904 78.4658 14.5188C78.2661 14.0471 77.9699 13.6232 77.5966 13.2746C77.2454 12.9076 76.8235 12.6168 76.3568 12.4199C75.8901 12.2231 75.3883 12.1243 74.8823 12.1297H67.1065L66.6686 11.6756L64.6562 8.18266H74.8888C75.9078 8.16911 76.9189 8.36519 77.86 8.75891C78.8012 9.15262 79.6527 9.73568 80.3624 10.4724C81.092 11.1886 81.6697 12.0466 82.0604 12.9943C82.4511 13.942 82.6468 14.9598 82.6356 15.9859C82.6671 17.5769 82.1896 19.1359 81.2736 20.4324C80.444 21.6979 79.2561 22.6831 77.8639 23.2605V23.2605Z" fill="#5F4C8C"/>
<path d="M89.9521 27.7524L86.0723 31.6865V8.19568L89.9521 12.0876V27.7524Z" fill="#5F4C8C"/>
<path d="M112.72 8.19238V31.6864L93.334 14.1243V8.19238L108.844 22.2583V8.19238H112.72ZM97.2106 27.7524L93.3469 31.6864V8.19238L97.2106 12.0843V27.7524Z" fill="#5F4C8C"/>
<path d="M119.985 27.7524L116.121 31.6865V8.19568L119.985 12.0876V27.7524Z" fill="#5F4C8C"/>
<path d="M61.2722 8.19568V31.6865H57.3666V12.1297H49.6133V8.19568H61.2722Z" fill="#5F4C8C"/>
<path d="M127.529 12.0454V8.19568H146.999L143.982 12.0454H127.529Z" fill="#EF7823"/>
<path d="M135.956 15.6293L141.146 15.652L128.589 31.6866H123.383L135.956 15.6293Z" fill="#EF7823"/>
<path d="M39.1855 17.666L40.5443 17.0109L42.8078 27.1979L39.1855 31.7611V17.666Z" fill="#EF7823"/>
<path d="M37.1427 18.6487V34.0671L33.3691 38.8119V20.4746L37.1427 18.6487Z" fill="#EF7823"/>
<path d="M31.5304 21.4703V41.0855L30.777 42.0001H27.7568L27.6055 23.3514L31.5304 21.4703Z" fill="#EF7823"/>
<path d="M21.734 26.1081L25.7716 24.1556V41.9286H21.6953L21.734 26.1081Z" fill="#5F4C8C"/>
<path d="M15.7324 28.7545L19.5093 26.9286V41.9448H15.7324V28.7545Z" fill="#EF7823"/>
<path d="M10.2969 31.4497L14.0737 29.614V41.9286L11.807 42L10.2969 40.0637V31.4497Z" fill="#EF7823"/>
<path d="M10.373 28.8454V24.6551L39.3609 11.0367L39.9598 14.9319L10.373 28.8454Z" fill="#5F4C8C"/>
<path d="M10.373 22.2552V18.2401L34.8178 6.68762L38.5817 8.45843V8.92222L10.373 22.2552Z" fill="#EF7823"/>
<path d="M10.373 15.9924V11.8897L28.1979 3.33398L32.287 5.40317L10.373 15.9924Z" fill="#EF7823"/>
<path d="M10.373 9.58054V5.37405L21.6327 0L25.6607 2.12757L10.373 9.58054Z" fill="#EF7823"/>
<path d="M4.6875 7.85183L8.46111 6.2594V38.0497L4.6875 33.1394V7.85183Z" fill="#EF7823"/>
<path d="M2.82055 30.4994L0 26.9481L2.82055 14.9838V30.4994Z" fill="#EF7823"/>
</g>
<defs>
<clipPath id="clip0">
<rect width="144" height="41" fill="white"/>
</clipPath>
</defs>
</svg>
