<svg width="133" height="97" viewBox="0 0 133 97" fill="none" xmlns="http://www.w3.org/2000/svg">
<path d="M38.3505 85.5111L44.9556 97.0151H38.908L29.5854 81.0003L34.2863 81.0427C35.7159 81.0191 37.0797 80.4416 38.087 79.4333C39.0943 78.425 39.6655 77.0656 39.6788 75.6449C39.6885 74.9419 39.5489 74.2447 39.2691 73.5989C38.9893 72.9531 38.5756 72.3732 38.055 71.897C37.5682 71.3931 36.9827 70.9937 36.3345 70.7235C35.6863 70.4532 34.9892 70.3179 34.2863 70.3258H23.8913L23.282 69.7204L20.5156 64.9795H34.2254C37.0664 64.9819 39.7904 66.1044 41.7993 68.1007C43.8082 70.0969 44.9379 72.8037 44.9403 75.6268C44.9786 77.7943 44.3154 79.9167 43.0484 81.6815C41.9001 83.3935 40.2646 84.7268 38.3505 85.5111Z" fill="#5F4C8C"/>
<path d="M54.6134 91.5661L49.2422 96.9457V64.8374L54.6134 70.1353V91.5661Z" fill="#5F4C8C"/>
<path d="M85.0515 64.9732V96.249L59.1035 72.8717V64.9732L79.6956 83.7006V64.9732H85.0515ZM64.4595 91.5657L59.1035 96.9423V64.834L64.4747 70.1319L64.4595 91.5657Z" fill="#5F4C8C"/>
<path d="M94.9024 91.5661L89.5312 96.9457V64.8374L94.9024 70.1353V91.5661Z" fill="#5F4C8C"/>
<path d="M16.1166 64.9731V96.1097H10.7424V70.3104H0V64.9731H16.1166Z" fill="#5F4C8C"/>
<path d="M105.645 70.3104V64.9731H133L128.762 70.3104H105.645Z" fill="#EF7823"/>
<path d="M116.771 74.7578L123.778 74.7881L106.851 96.1098H99.8438L116.771 74.7578Z" fill="#EF7823"/>
<path d="M89.9961 23.5894L91.8363 22.7114L94.9011 36.3164L89.9961 42.4075V23.5894Z" fill="#EF7823"/>
<path d="M87.2331 24.897V45.4861L82.127 51.8194V27.337L87.2331 24.897Z" fill="#EF7823"/>
<path d="M79.6414 28.666V54.8588L78.6178 56.0758H74.5322L74.3281 31.1787L79.6414 28.666Z" fill="#EF7823"/>
<path d="M66.381 34.8601L71.8436 32.2505V55.982H66.3262L66.381 34.8601Z" fill="#5F4C8C"/>
<path d="M58.2578 38.3961L63.367 35.9561V56.0033H58.2578V38.3961Z" fill="#EF7823"/>
<path d="M50.9004 41.9926L56.0096 39.5435V55.9821L52.9447 56.0759L50.9004 53.4936V41.9926Z" fill="#EF7823"/>
<path d="M51.0059 38.5144V32.9198L90.2341 14.7344L91.0506 19.9354L51.0059 38.5144Z" fill="#5F4C8C"/>
<path d="M51.0059 29.7137V24.3552L84.0891 8.92773L89.18 11.2951V11.9127L51.0059 29.7137Z" fill="#EF7823"/>
<path d="M51.0059 21.352V15.8755L75.1259 4.4502L80.6616 7.21419L51.0059 21.352Z" fill="#EF7823"/>
<path d="M51.0059 12.7906V7.17487L66.242 0L71.6954 2.8427L51.0059 12.7906Z" fill="#EF7823"/>
<path d="M43.3066 10.4837L48.4158 8.35547V50.8053L43.3066 44.248V10.4837Z" fill="#EF7823"/>
<path d="M40.7814 40.7242L36.9609 35.9833L40.7814 20.0049V40.7242Z" fill="#EF7823"/>
</svg>
