<svg width="153" height="111" viewBox="0 0 153 111" fill="none" xmlns="http://www.w3.org/2000/svg">
<path d="M46.9404 79.2083C47.3178 81.6376 48.0559 83.997 49.1304 86.2083C51.4404 91.8683 53.8504 97.4782 56.2204 103.108C56.3887 103.51 56.6932 103.839 57.0804 104.038C57.7622 104.403 58.2999 104.989 58.6052 105.699C58.9104 106.409 58.9651 107.203 58.7604 107.948C58.5283 108.642 58.0879 109.248 57.4992 109.683C56.9104 110.118 56.202 110.361 55.4704 110.378C48.2437 110.378 41.0137 110.378 33.7804 110.378C33.121 110.41 32.4672 110.244 31.9025 109.902C31.3379 109.56 30.888 109.057 30.6104 108.458C30.2848 107.907 30.1441 107.266 30.2089 106.629C30.2736 105.992 30.5405 105.393 30.9704 104.918C31.6204 104.208 31.4404 103.658 31.0804 102.858C29.0804 98.4082 27.1504 93.8582 25.4904 89.2882C24.4942 86.8 23.7147 84.2305 23.1604 81.6082C23.0031 80.8377 22.9161 80.0545 22.9004 79.2682C22.9804 76.2682 22.2804 73.2682 22.7004 70.2083C22.7704 69.6483 22.7004 68.9383 21.9104 68.8883C19.8743 68.8206 17.9271 68.0382 16.4104 66.6783C15.0704 65.4183 13.4104 64.9983 11.8604 64.3382C8.80831 63.1905 6.12252 61.2405 4.0862 58.6938C2.04989 56.147 0.73851 53.098 0.290359 49.8683C-0.541435 45.293 0.429726 40.5734 3.00036 36.6983C5.42198 32.7841 9.251 29.9463 13.7004 28.7683C14.5013 28.5551 15.2367 28.1462 15.8404 27.5783C17.6743 25.7906 20.1198 24.7681 22.6804 24.7183C31.347 24.6716 40.0137 24.6716 48.6804 24.7183C51.0874 24.6948 53.4072 25.6178 55.1404 27.2883C56.4404 28.5683 57.6804 28.1783 58.9304 27.9683C65.3362 26.7864 71.5394 24.6917 77.3504 21.7483C83.1502 18.9168 88.7351 15.6648 94.0604 12.0183C95.8904 10.7883 97.6104 9.35825 99.5404 8.31825C100.263 7.9285 100.867 7.35138 101.289 6.64753C101.711 5.94367 101.936 5.13907 101.94 4.31825C102.115 3.04855 102.771 1.89445 103.772 1.09425C104.773 0.294054 106.043 -0.0911254 107.32 0.0182515C108.663 0.0678312 109.933 0.644536 110.854 1.62345C111.775 2.60236 112.273 3.90466 112.24 5.24825C112.24 14.8883 112.24 24.5183 112.24 34.1583C112.205 34.538 112.295 34.9189 112.495 35.2436C112.695 35.5682 112.995 35.819 113.35 35.9583C115.156 36.8297 116.697 38.1645 117.818 39.8265C118.939 41.4884 119.599 43.418 119.73 45.4183C119.977 47.1733 119.836 48.9609 119.317 50.6557C118.799 52.3504 117.916 53.9112 116.73 55.2283C115.779 56.2854 114.627 57.1421 113.34 57.7483C113.002 57.8837 112.72 58.1291 112.538 58.4448C112.357 58.7604 112.287 59.128 112.34 59.4883C112.34 69.1183 112.34 78.7582 112.34 88.3982C112.337 89.6327 111.897 90.8263 111.1 91.7684C110.302 92.7106 109.197 93.3409 107.98 93.5482C104.98 93.9282 102.72 92.4383 101.98 89.6783C101.748 88.9593 101.663 88.2008 101.73 87.4482C101.814 86.9849 101.748 86.507 101.544 86.0831C101.339 85.6592 101.005 85.3109 100.59 85.0882C95.0873 81.1642 89.3278 77.6129 83.3504 74.4583C78.6381 71.9801 73.7197 69.9157 68.6504 68.2882C66.8804 67.7382 65.0804 67.2882 63.3104 66.7882C62.4104 66.5282 62.0904 66.7882 62.1204 67.7282C62.2783 70.5593 61.4201 73.3538 59.7004 75.6082C58.9655 76.5743 58.0372 77.3766 56.9749 77.9637C55.9125 78.5509 54.7393 78.91 53.5304 79.0182C51.3504 79.2282 49.1604 79.0882 46.9404 79.2083Z" fill="#5F4C8C"/>
<path d="M140.001 11.0183C138.271 11.0183 136.851 11.0183 135.421 11.0183C135.054 11.0262 134.693 10.9332 134.375 10.7493C134.058 10.5654 133.797 10.2978 133.622 9.97566C133.446 9.65356 133.362 9.2894 133.38 8.92301C133.398 8.55662 133.516 8.20211 133.721 7.89827C133.859 7.65556 134.063 7.45655 134.309 7.32394C134.554 7.19133 134.832 7.13046 135.111 7.14827C138.461 7.14827 141.811 7.14827 145.171 7.14827C145.423 7.11609 145.678 7.14266 145.918 7.22589C146.157 7.30912 146.374 7.44675 146.551 7.62796C146.729 7.80917 146.862 8.02902 146.94 8.27026C147.018 8.51149 147.039 8.76753 147.001 9.01827C147.001 12.2183 147.001 15.4183 147.001 18.6083C147.001 19.1387 146.79 19.6474 146.415 20.0225C146.04 20.3976 145.532 20.6083 145.001 20.6083C144.471 20.6083 143.962 20.3976 143.587 20.0225C143.212 19.6474 143.001 19.1387 143.001 18.6083C143.001 17.1483 143.001 15.6883 143.001 14.2283L142.581 13.9483C141.631 15.0083 140.731 16.1083 139.731 17.1083C135.798 21.1083 131.848 25.0649 127.881 28.9783C127.653 29.1521 127.491 29.3983 127.422 29.6765C127.353 29.9547 127.381 30.2481 127.501 30.5083C128.351 33.0783 127.351 35.1083 125.421 36.7483C124.606 37.4512 123.599 37.8944 122.53 38.0209C121.461 38.1474 120.378 37.9515 119.421 37.4583C118.388 37.0536 117.509 36.3351 116.906 35.404C116.303 34.4729 116.008 33.3762 116.061 32.2683C116.013 31.3756 116.176 30.4842 116.539 29.6672C116.902 28.8503 117.454 28.1311 118.149 27.5689C118.844 27.0066 119.663 26.6173 120.537 26.4329C121.412 26.2485 122.318 26.2744 123.181 26.5083C123.533 26.6219 123.912 26.6284 124.268 26.5269C124.624 26.4255 124.942 26.2206 125.181 25.9383C129.821 21.2083 134.531 16.5383 139.181 11.8483C139.461 11.7183 139.621 11.4983 140.001 11.0183Z" fill="#EF781F"/>
<path d="M143.16 78.8983C143.16 77.1983 143.16 75.8983 143.16 74.5083C143.16 72.9683 143.93 72.1383 145.25 72.1583C146.57 72.1783 147.14 72.9883 147.14 74.5383C147.14 77.5383 147.14 80.5383 147.14 83.5383C147.14 85.1283 146.57 85.7183 145.02 85.7283H135.68C134.39 85.7283 133.63 85.0683 133.57 83.9583C133.533 83.6792 133.558 83.3953 133.642 83.1268C133.727 82.8583 133.87 82.6118 134.061 82.4047C134.252 82.1976 134.486 82.0351 134.747 81.9285C135.008 81.822 135.288 81.7742 135.57 81.7883C137.03 81.7383 138.49 81.7883 139.95 81.7883L140.17 81.4483C138.8 80.1483 137.41 78.8683 136.07 77.5383C132.423 73.9117 128.783 70.265 125.15 66.5983C125.004 66.396 124.795 66.2486 124.556 66.1796C124.316 66.1107 124.06 66.1243 123.83 66.2183C122.747 66.5619 121.587 66.5826 120.492 66.2779C119.398 65.9732 118.415 65.3563 117.665 64.5025C116.916 63.6488 116.431 62.5951 116.27 61.4702C116.109 60.3454 116.279 59.198 116.76 58.1683C117.175 57.2123 117.857 56.3962 118.725 55.818C119.592 55.2398 120.607 54.924 121.65 54.9083C123.084 54.8057 124.505 55.231 125.647 56.1041C126.789 56.9772 127.573 58.2378 127.85 59.6483C128.012 60.632 127.919 61.6409 127.58 62.5783C127.503 62.7325 127.478 62.9072 127.509 63.0765C127.54 63.2458 127.624 63.4008 127.75 63.5183C132.82 68.5383 137.86 73.5983 143.16 78.8983Z" fill="#EF781F"/>
<path d="M145.381 44.3282C144.481 43.4782 143.571 42.6482 142.701 41.7782C141.501 40.5782 141.391 39.4782 142.321 38.5482C143.251 37.6182 144.461 37.8082 145.541 38.8882C147.541 40.8882 149.481 42.8882 151.471 44.8282C152.691 46.0482 152.981 47.0482 151.471 48.5182C149.321 50.6882 147.171 52.8582 144.951 54.9582C144.777 55.1493 144.566 55.302 144.33 55.4065C144.094 55.511 143.839 55.565 143.581 55.565C143.323 55.565 143.067 55.511 142.831 55.4065C142.595 55.302 142.384 55.1493 142.211 54.9582C142.017 54.7689 141.865 54.541 141.765 54.2891C141.665 54.0372 141.619 53.7672 141.63 53.4964C141.642 53.2257 141.71 52.9604 141.831 52.7178C141.951 52.4751 142.122 52.2606 142.331 52.0882C143.221 51.1682 144.131 50.2782 145.031 49.3682C145.171 49.2382 145.351 49.1082 145.261 48.8682C145.171 48.6282 144.941 48.6682 144.751 48.6682L133.391 48.7182C132.851 48.7182 132.691 49.1282 132.471 49.5182C131.959 50.5448 131.145 51.3902 130.138 51.9408C129.132 52.4914 127.981 52.7208 126.841 52.5982C125.725 52.5744 124.645 52.2046 123.749 51.54C122.854 50.8753 122.187 49.9486 121.841 48.8882C121.296 47.5272 121.285 46.0109 121.81 44.6421C122.334 43.2733 123.356 42.153 124.671 41.505C125.986 40.857 127.497 40.7291 128.902 41.1468C130.307 41.5645 131.503 42.4971 132.251 43.7582C132.387 44.0762 132.625 44.3405 132.927 44.5103C133.229 44.6801 133.578 44.7461 133.921 44.6982C137.661 44.6982 141.401 44.6982 145.141 44.6982L145.381 44.3282Z" fill="#EF781F"/>
<path d="M101.76 82.3483C97.2127 79.0596 92.467 76.0539 87.5502 73.3483C84.5902 71.6949 81.5469 70.1883 78.4202 68.8283C74.101 66.9109 69.6287 65.3588 65.0502 64.1883C63.0328 63.6604 60.9762 63.2959 58.9002 63.0983C58.3302 63.0483 58.1902 62.8383 58.4402 62.3383C59.3033 60.3491 59.6738 58.1811 59.5202 56.0183C59.4669 49.8183 59.4669 43.6216 59.5202 37.4283C59.6513 35.2461 59.2101 33.0675 58.2402 31.1083C66.3802 29.8783 73.7902 26.8683 80.9702 23.2283C88.2066 19.4955 95.1557 15.2304 101.76 10.4683V82.3483Z" fill="#EBE9EE"/>
<path d="M35.5299 66.0181C31.4099 66.0181 27.2899 65.8881 23.1899 66.0181C19.0899 66.1481 15.3399 62.6181 14.6599 58.8281C14.4936 57.8102 14.4166 56.7796 14.4299 55.7481C14.4299 49.4781 14.4299 43.1981 14.4299 36.9181C14.3955 35.3475 14.7678 33.7947 15.5108 32.4104C16.2537 31.0262 17.342 29.8576 18.6699 29.0181C20.0631 28.0933 21.6978 27.5994 23.3699 27.5981C31.4766 27.5981 39.5866 27.5981 47.6999 27.5981C50.0541 27.6189 52.3063 28.5612 53.9738 30.2231C55.6413 31.885 56.5912 34.1341 56.6199 36.4881C56.6199 43.2881 56.6199 50.0881 56.6199 56.8881C56.6754 58.8643 56.0787 60.8037 54.922 62.4069C53.7652 64.0101 52.1128 65.1878 50.2199 65.7581C49.733 65.9188 49.2226 65.9965 48.7099 65.9881L35.5299 66.0181Z" fill="#EBE9EE"/>
<path d="M53.2097 103.708C52.6138 103.397 51.9306 103.295 51.2697 103.418C46.1397 103.938 40.9897 103.508 35.8497 103.648C35.5133 103.696 35.1705 103.631 34.8754 103.463C34.5803 103.294 34.3496 103.032 34.2197 102.718C31.3397 96.0883 28.3597 89.5083 26.3997 82.5283C25.9399 80.7278 25.7081 78.8766 25.7097 77.0183C25.6597 74.6983 25.7097 72.3783 25.7097 70.0183C25.7097 69.3283 25.8497 69.0183 26.6197 69.0183C32.0197 69.0183 37.4131 69.0183 42.7997 69.0183C43.5897 69.0183 43.7297 69.3283 43.7097 70.0183C43.7097 71.2983 43.7797 72.5883 43.7097 73.8583C43.3297 78.7383 44.7097 83.2483 46.5697 87.6683C48.7097 92.6683 50.8097 97.6683 52.9297 102.598C52.9997 102.928 53.0597 103.238 53.2097 103.708Z" fill="#EBE9EE"/>
<path d="M104.811 46.8082V5.66822C104.763 5.13326 104.887 4.59686 105.166 4.13786C105.445 3.67886 105.864 3.32146 106.361 3.11822C106.84 2.96984 107.353 2.97703 107.827 3.13873C108.302 3.30044 108.713 3.60835 109.001 4.01822C109.332 4.51944 109.474 5.12203 109.401 5.71822C109.401 12.7982 109.401 19.8749 109.401 26.9482C109.401 47.2282 109.401 67.5049 109.401 87.7782C109.475 88.2689 109.402 88.7706 109.19 89.2194C108.978 89.6682 108.637 90.0437 108.211 90.2982C107.871 90.5311 107.472 90.6619 107.06 90.6753C106.649 90.6887 106.242 90.5842 105.888 90.374C105.533 90.1638 105.247 89.8567 105.061 89.4889C104.876 89.1211 104.799 88.708 104.841 88.2982C104.841 84.6982 104.841 81.0982 104.841 77.4982L104.811 46.8082Z" fill="#EBE9EE"/>
<path d="M12.2897 32.4783C11.6375 34.5931 11.3865 36.8112 11.5497 39.0183C11.5497 44.0183 11.5497 49.0783 11.5497 54.1083C11.5497 56.4683 11.3797 58.8483 12.2197 61.2083C9.44404 59.9737 7.08674 57.9593 5.43439 55.4101C3.78204 52.8609 2.90579 49.8866 2.91214 46.8487C2.9185 43.8109 3.80719 40.8402 5.47019 38.298C7.1332 35.7557 9.49889 33.7512 12.2797 32.5283L12.2897 32.4783Z" fill="#EBE9EE"/>
<path d="M50.1195 76.0183C49.1195 75.8883 47.5295 76.5483 46.7595 75.7583C45.9895 74.9683 46.5695 73.4783 46.5595 72.2983C46.5595 69.0083 46.5595 69.0683 49.7995 68.7883C51.853 68.5395 53.7714 67.6346 55.2695 66.2084C55.5351 65.9824 55.8492 65.8207 56.1873 65.7357C56.5255 65.6507 56.8787 65.6448 57.2195 65.7183C59.3295 66.0083 59.3695 66.0283 59.2195 68.2283C59.2007 69.9769 58.6914 71.685 57.7495 73.1583C57.2202 74.0205 56.4815 74.7347 55.6021 75.2347C54.7227 75.7348 53.7311 76.0043 52.7195 76.0183C51.9195 76.0183 51.1195 76.0183 50.1195 76.0183Z" fill="#EBE9EE"/>
<path d="M112.221 55.0182C112.281 52.2182 112.571 49.6082 112.501 47.0182C112.431 44.4282 112.501 41.7682 112.501 38.8882C113.662 39.5853 114.65 40.5354 115.393 41.6678C116.136 42.8002 116.614 44.0856 116.791 45.4282C117.311 49.6182 115.751 52.8982 112.221 55.0182Z" fill="#EBE9EE"/>
<path d="M44.5305 107.488C41.1405 107.488 37.7505 107.488 34.3605 107.488C33.9205 107.488 33.2305 107.678 33.2305 106.998C33.2305 106.318 33.8705 106.538 34.2805 106.538H54.7405C55.1505 106.538 55.8005 106.398 55.8105 106.978C55.8205 107.558 55.1405 107.488 54.7005 107.488C51.3105 107.498 47.9205 107.488 44.5305 107.488Z" fill="#EBE9EE"/>
<path d="M121.841 34.0183C121.605 34.0211 121.37 33.9762 121.152 33.8865C120.933 33.7967 120.735 33.6639 120.569 33.496C120.403 33.328 120.272 33.1283 120.185 32.9088C120.098 32.6893 120.056 32.4545 120.061 32.2183C120.068 31.7431 120.244 31.2859 120.557 30.9286C120.87 30.5712 121.301 30.3372 121.771 30.2683C122.281 30.3279 122.756 30.5577 123.119 30.9207C123.482 31.2837 123.711 31.7585 123.771 32.2683C123.726 32.7484 123.503 33.1942 123.146 33.5181C122.789 33.842 122.323 34.0204 121.841 34.0183Z" fill="#EBE9EE"/>
<path d="M120.24 60.6484C120.24 60.1749 120.423 59.7197 120.751 59.3785C121.079 59.0372 121.527 58.8365 122 58.8184C122.497 58.8339 122.972 59.0271 123.339 59.3628C123.706 59.6985 123.941 60.1546 124 60.6484C123.923 61.1181 123.704 61.5533 123.374 61.8961C123.044 62.239 122.617 62.4734 122.15 62.5684C121.654 62.5311 121.188 62.3166 120.838 61.9641C120.487 61.6115 120.275 61.1445 120.24 60.6484Z" fill="#EBE9EE"/>
<path d="M125.57 46.6382C125.573 46.4031 125.622 46.171 125.716 45.9552C125.809 45.7395 125.944 45.5445 126.114 45.3816C126.283 45.2187 126.483 45.0911 126.702 45.0064C126.922 44.9217 127.156 44.8815 127.39 44.8882C127.891 44.896 128.369 45.099 128.722 45.4539C129.075 45.8088 129.275 46.2876 129.28 46.7882C129.18 47.2649 128.934 47.6984 128.575 48.0283C128.216 48.3581 127.764 48.5678 127.28 48.6282C126.795 48.5776 126.348 48.3433 126.03 47.9732C125.712 47.6032 125.547 47.1255 125.57 46.6382Z" fill="#EBE9EE"/>
</svg>
